%TF.GenerationSoftware,KiCad,Pcbnew,7.0.9*%
%TF.CreationDate,2023-12-04T13:48:36-06:00*%
%TF.ProjectId,smartportsd-smd,736d6172-7470-46f7-9274-73642d736d64,rev?*%
%TF.SameCoordinates,Original*%
%TF.FileFunction,Legend,Top*%
%TF.FilePolarity,Positive*%
%FSLAX46Y46*%
G04 Gerber Fmt 4.6, Leading zero omitted, Abs format (unit mm)*
G04 Created by KiCad (PCBNEW 7.0.9) date 2023-12-04 13:48:36*
%MOMM*%
%LPD*%
G01*
G04 APERTURE LIST*
%ADD10C,0.358981*%
%ADD11C,0.150000*%
%ADD12C,0.200000*%
%ADD13C,0.254000*%
%ADD14C,0.120000*%
%ADD15C,0.500000*%
G04 APERTURE END LIST*
D10*
X166930490Y-105410000D02*
G75*
G03*
X166930490Y-105410000I-179490J0D01*
G01*
X154581509Y-119380000D02*
G75*
G03*
X154581509Y-119380000I-179490J0D01*
G01*
X161245471Y-114935000D02*
G75*
G03*
X161245471Y-114935000I-179490J0D01*
G01*
X145340490Y-113665000D02*
G75*
G03*
X145340490Y-113665000I-179490J0D01*
G01*
X135942490Y-123444000D02*
G75*
G03*
X135942490Y-123444000I-179490J0D01*
G01*
D11*
X176809476Y-120885390D02*
X176733286Y-120847295D01*
X176733286Y-120847295D02*
X176619000Y-120847295D01*
X176619000Y-120847295D02*
X176504714Y-120885390D01*
X176504714Y-120885390D02*
X176428524Y-120961580D01*
X176428524Y-120961580D02*
X176390429Y-121037771D01*
X176390429Y-121037771D02*
X176352333Y-121190152D01*
X176352333Y-121190152D02*
X176352333Y-121304438D01*
X176352333Y-121304438D02*
X176390429Y-121456819D01*
X176390429Y-121456819D02*
X176428524Y-121533009D01*
X176428524Y-121533009D02*
X176504714Y-121609200D01*
X176504714Y-121609200D02*
X176619000Y-121647295D01*
X176619000Y-121647295D02*
X176695191Y-121647295D01*
X176695191Y-121647295D02*
X176809476Y-121609200D01*
X176809476Y-121609200D02*
X176847572Y-121571104D01*
X176847572Y-121571104D02*
X176847572Y-121304438D01*
X176847572Y-121304438D02*
X176695191Y-121304438D01*
X177190429Y-121647295D02*
X177190429Y-120847295D01*
X177190429Y-120847295D02*
X177647572Y-121647295D01*
X177647572Y-121647295D02*
X177647572Y-120847295D01*
X178028524Y-121647295D02*
X178028524Y-120847295D01*
X178028524Y-120847295D02*
X178219000Y-120847295D01*
X178219000Y-120847295D02*
X178333286Y-120885390D01*
X178333286Y-120885390D02*
X178409476Y-120961580D01*
X178409476Y-120961580D02*
X178447571Y-121037771D01*
X178447571Y-121037771D02*
X178485667Y-121190152D01*
X178485667Y-121190152D02*
X178485667Y-121304438D01*
X178485667Y-121304438D02*
X178447571Y-121456819D01*
X178447571Y-121456819D02*
X178409476Y-121533009D01*
X178409476Y-121533009D02*
X178333286Y-121609200D01*
X178333286Y-121609200D02*
X178219000Y-121647295D01*
X178219000Y-121647295D02*
X178028524Y-121647295D01*
D12*
X144859951Y-85304219D02*
X144859951Y-86018504D01*
X144859951Y-86018504D02*
X144812332Y-86161361D01*
X144812332Y-86161361D02*
X144717094Y-86256600D01*
X144717094Y-86256600D02*
X144574237Y-86304219D01*
X144574237Y-86304219D02*
X144478999Y-86304219D01*
X145812332Y-86304219D02*
X145336142Y-86304219D01*
X145336142Y-86304219D02*
X145336142Y-85304219D01*
X146717094Y-86208980D02*
X146669475Y-86256600D01*
X146669475Y-86256600D02*
X146526618Y-86304219D01*
X146526618Y-86304219D02*
X146431380Y-86304219D01*
X146431380Y-86304219D02*
X146288523Y-86256600D01*
X146288523Y-86256600D02*
X146193285Y-86161361D01*
X146193285Y-86161361D02*
X146145666Y-86066123D01*
X146145666Y-86066123D02*
X146098047Y-85875647D01*
X146098047Y-85875647D02*
X146098047Y-85732790D01*
X146098047Y-85732790D02*
X146145666Y-85542314D01*
X146145666Y-85542314D02*
X146193285Y-85447076D01*
X146193285Y-85447076D02*
X146288523Y-85351838D01*
X146288523Y-85351838D02*
X146431380Y-85304219D01*
X146431380Y-85304219D02*
X146526618Y-85304219D01*
X146526618Y-85304219D02*
X146669475Y-85351838D01*
X146669475Y-85351838D02*
X146717094Y-85399457D01*
X147431380Y-85304219D02*
X147431380Y-86018504D01*
X147431380Y-86018504D02*
X147383761Y-86161361D01*
X147383761Y-86161361D02*
X147288523Y-86256600D01*
X147288523Y-86256600D02*
X147145666Y-86304219D01*
X147145666Y-86304219D02*
X147050428Y-86304219D01*
X148383761Y-86304219D02*
X147907571Y-86304219D01*
X147907571Y-86304219D02*
X147907571Y-85304219D01*
X149288523Y-86208980D02*
X149240904Y-86256600D01*
X149240904Y-86256600D02*
X149098047Y-86304219D01*
X149098047Y-86304219D02*
X149002809Y-86304219D01*
X149002809Y-86304219D02*
X148859952Y-86256600D01*
X148859952Y-86256600D02*
X148764714Y-86161361D01*
X148764714Y-86161361D02*
X148717095Y-86066123D01*
X148717095Y-86066123D02*
X148669476Y-85875647D01*
X148669476Y-85875647D02*
X148669476Y-85732790D01*
X148669476Y-85732790D02*
X148717095Y-85542314D01*
X148717095Y-85542314D02*
X148764714Y-85447076D01*
X148764714Y-85447076D02*
X148859952Y-85351838D01*
X148859952Y-85351838D02*
X149002809Y-85304219D01*
X149002809Y-85304219D02*
X149098047Y-85304219D01*
X149098047Y-85304219D02*
X149240904Y-85351838D01*
X149240904Y-85351838D02*
X149288523Y-85399457D01*
X150002809Y-85304219D02*
X150002809Y-86018504D01*
X150002809Y-86018504D02*
X149955190Y-86161361D01*
X149955190Y-86161361D02*
X149859952Y-86256600D01*
X149859952Y-86256600D02*
X149717095Y-86304219D01*
X149717095Y-86304219D02*
X149621857Y-86304219D01*
X150955190Y-86304219D02*
X150479000Y-86304219D01*
X150479000Y-86304219D02*
X150479000Y-85304219D01*
X151859952Y-86208980D02*
X151812333Y-86256600D01*
X151812333Y-86256600D02*
X151669476Y-86304219D01*
X151669476Y-86304219D02*
X151574238Y-86304219D01*
X151574238Y-86304219D02*
X151431381Y-86256600D01*
X151431381Y-86256600D02*
X151336143Y-86161361D01*
X151336143Y-86161361D02*
X151288524Y-86066123D01*
X151288524Y-86066123D02*
X151240905Y-85875647D01*
X151240905Y-85875647D02*
X151240905Y-85732790D01*
X151240905Y-85732790D02*
X151288524Y-85542314D01*
X151288524Y-85542314D02*
X151336143Y-85447076D01*
X151336143Y-85447076D02*
X151431381Y-85351838D01*
X151431381Y-85351838D02*
X151574238Y-85304219D01*
X151574238Y-85304219D02*
X151669476Y-85304219D01*
X151669476Y-85304219D02*
X151812333Y-85351838D01*
X151812333Y-85351838D02*
X151859952Y-85399457D01*
X152574238Y-85304219D02*
X152574238Y-86018504D01*
X152574238Y-86018504D02*
X152526619Y-86161361D01*
X152526619Y-86161361D02*
X152431381Y-86256600D01*
X152431381Y-86256600D02*
X152288524Y-86304219D01*
X152288524Y-86304219D02*
X152193286Y-86304219D01*
X153526619Y-86304219D02*
X153050429Y-86304219D01*
X153050429Y-86304219D02*
X153050429Y-85304219D01*
X154431381Y-86208980D02*
X154383762Y-86256600D01*
X154383762Y-86256600D02*
X154240905Y-86304219D01*
X154240905Y-86304219D02*
X154145667Y-86304219D01*
X154145667Y-86304219D02*
X154002810Y-86256600D01*
X154002810Y-86256600D02*
X153907572Y-86161361D01*
X153907572Y-86161361D02*
X153859953Y-86066123D01*
X153859953Y-86066123D02*
X153812334Y-85875647D01*
X153812334Y-85875647D02*
X153812334Y-85732790D01*
X153812334Y-85732790D02*
X153859953Y-85542314D01*
X153859953Y-85542314D02*
X153907572Y-85447076D01*
X153907572Y-85447076D02*
X154002810Y-85351838D01*
X154002810Y-85351838D02*
X154145667Y-85304219D01*
X154145667Y-85304219D02*
X154240905Y-85304219D01*
X154240905Y-85304219D02*
X154383762Y-85351838D01*
X154383762Y-85351838D02*
X154431381Y-85399457D01*
D11*
X142449779Y-113915866D02*
X143211684Y-113915866D01*
X142830731Y-114296819D02*
X142830731Y-113534914D01*
X142322779Y-123440866D02*
X143084684Y-123440866D01*
X142703731Y-123821819D02*
X142703731Y-123059914D01*
X176390429Y-112325533D02*
X176999953Y-112325533D01*
X176695191Y-112630295D02*
X176695191Y-112020771D01*
X177761857Y-111830295D02*
X177380905Y-111830295D01*
X177380905Y-111830295D02*
X177342809Y-112211247D01*
X177342809Y-112211247D02*
X177380905Y-112173152D01*
X177380905Y-112173152D02*
X177457095Y-112135057D01*
X177457095Y-112135057D02*
X177647571Y-112135057D01*
X177647571Y-112135057D02*
X177723762Y-112173152D01*
X177723762Y-112173152D02*
X177761857Y-112211247D01*
X177761857Y-112211247D02*
X177799952Y-112287438D01*
X177799952Y-112287438D02*
X177799952Y-112477914D01*
X177799952Y-112477914D02*
X177761857Y-112554104D01*
X177761857Y-112554104D02*
X177723762Y-112592200D01*
X177723762Y-112592200D02*
X177647571Y-112630295D01*
X177647571Y-112630295D02*
X177457095Y-112630295D01*
X177457095Y-112630295D02*
X177380905Y-112592200D01*
X177380905Y-112592200D02*
X177342809Y-112554104D01*
X178028524Y-111830295D02*
X178295191Y-112630295D01*
X178295191Y-112630295D02*
X178561857Y-111830295D01*
X165055779Y-105660866D02*
X165817684Y-105660866D01*
X165436731Y-106041819D02*
X165436731Y-105279914D01*
D12*
X175387191Y-132675219D02*
X175720524Y-133675219D01*
X175720524Y-133675219D02*
X176053857Y-132675219D01*
X176911000Y-133675219D02*
X176339572Y-133675219D01*
X176625286Y-133675219D02*
X176625286Y-132675219D01*
X176625286Y-132675219D02*
X176530048Y-132818076D01*
X176530048Y-132818076D02*
X176434810Y-132913314D01*
X176434810Y-132913314D02*
X176339572Y-132960933D01*
X177339572Y-133579980D02*
X177387191Y-133627600D01*
X177387191Y-133627600D02*
X177339572Y-133675219D01*
X177339572Y-133675219D02*
X177291953Y-133627600D01*
X177291953Y-133627600D02*
X177339572Y-133579980D01*
X177339572Y-133579980D02*
X177339572Y-133675219D01*
X178006238Y-132675219D02*
X178101476Y-132675219D01*
X178101476Y-132675219D02*
X178196714Y-132722838D01*
X178196714Y-132722838D02*
X178244333Y-132770457D01*
X178244333Y-132770457D02*
X178291952Y-132865695D01*
X178291952Y-132865695D02*
X178339571Y-133056171D01*
X178339571Y-133056171D02*
X178339571Y-133294266D01*
X178339571Y-133294266D02*
X178291952Y-133484742D01*
X178291952Y-133484742D02*
X178244333Y-133579980D01*
X178244333Y-133579980D02*
X178196714Y-133627600D01*
X178196714Y-133627600D02*
X178101476Y-133675219D01*
X178101476Y-133675219D02*
X178006238Y-133675219D01*
X178006238Y-133675219D02*
X177911000Y-133627600D01*
X177911000Y-133627600D02*
X177863381Y-133579980D01*
X177863381Y-133579980D02*
X177815762Y-133484742D01*
X177815762Y-133484742D02*
X177768143Y-133294266D01*
X177768143Y-133294266D02*
X177768143Y-133056171D01*
X177768143Y-133056171D02*
X177815762Y-132865695D01*
X177815762Y-132865695D02*
X177863381Y-132770457D01*
X177863381Y-132770457D02*
X177911000Y-132722838D01*
X177911000Y-132722838D02*
X178006238Y-132675219D01*
D11*
X170180095Y-111214819D02*
X170180095Y-112024342D01*
X170180095Y-112024342D02*
X170227714Y-112119580D01*
X170227714Y-112119580D02*
X170275333Y-112167200D01*
X170275333Y-112167200D02*
X170370571Y-112214819D01*
X170370571Y-112214819D02*
X170561047Y-112214819D01*
X170561047Y-112214819D02*
X170656285Y-112167200D01*
X170656285Y-112167200D02*
X170703904Y-112119580D01*
X170703904Y-112119580D02*
X170751523Y-112024342D01*
X170751523Y-112024342D02*
X170751523Y-111214819D01*
X171751523Y-112214819D02*
X171180095Y-112214819D01*
X171465809Y-112214819D02*
X171465809Y-111214819D01*
X171465809Y-111214819D02*
X171370571Y-111357676D01*
X171370571Y-111357676D02*
X171275333Y-111452914D01*
X171275333Y-111452914D02*
X171180095Y-111500533D01*
X169251333Y-102308819D02*
X168918000Y-101832628D01*
X168679905Y-102308819D02*
X168679905Y-101308819D01*
X168679905Y-101308819D02*
X169060857Y-101308819D01*
X169060857Y-101308819D02*
X169156095Y-101356438D01*
X169156095Y-101356438D02*
X169203714Y-101404057D01*
X169203714Y-101404057D02*
X169251333Y-101499295D01*
X169251333Y-101499295D02*
X169251333Y-101642152D01*
X169251333Y-101642152D02*
X169203714Y-101737390D01*
X169203714Y-101737390D02*
X169156095Y-101785009D01*
X169156095Y-101785009D02*
X169060857Y-101832628D01*
X169060857Y-101832628D02*
X168679905Y-101832628D01*
X170108476Y-101308819D02*
X169918000Y-101308819D01*
X169918000Y-101308819D02*
X169822762Y-101356438D01*
X169822762Y-101356438D02*
X169775143Y-101404057D01*
X169775143Y-101404057D02*
X169679905Y-101546914D01*
X169679905Y-101546914D02*
X169632286Y-101737390D01*
X169632286Y-101737390D02*
X169632286Y-102118342D01*
X169632286Y-102118342D02*
X169679905Y-102213580D01*
X169679905Y-102213580D02*
X169727524Y-102261200D01*
X169727524Y-102261200D02*
X169822762Y-102308819D01*
X169822762Y-102308819D02*
X170013238Y-102308819D01*
X170013238Y-102308819D02*
X170108476Y-102261200D01*
X170108476Y-102261200D02*
X170156095Y-102213580D01*
X170156095Y-102213580D02*
X170203714Y-102118342D01*
X170203714Y-102118342D02*
X170203714Y-101880247D01*
X170203714Y-101880247D02*
X170156095Y-101785009D01*
X170156095Y-101785009D02*
X170108476Y-101737390D01*
X170108476Y-101737390D02*
X170013238Y-101689771D01*
X170013238Y-101689771D02*
X169822762Y-101689771D01*
X169822762Y-101689771D02*
X169727524Y-101737390D01*
X169727524Y-101737390D02*
X169679905Y-101785009D01*
X169679905Y-101785009D02*
X169632286Y-101880247D01*
X147534333Y-110468580D02*
X147486714Y-110516200D01*
X147486714Y-110516200D02*
X147343857Y-110563819D01*
X147343857Y-110563819D02*
X147248619Y-110563819D01*
X147248619Y-110563819D02*
X147105762Y-110516200D01*
X147105762Y-110516200D02*
X147010524Y-110420961D01*
X147010524Y-110420961D02*
X146962905Y-110325723D01*
X146962905Y-110325723D02*
X146915286Y-110135247D01*
X146915286Y-110135247D02*
X146915286Y-109992390D01*
X146915286Y-109992390D02*
X146962905Y-109801914D01*
X146962905Y-109801914D02*
X147010524Y-109706676D01*
X147010524Y-109706676D02*
X147105762Y-109611438D01*
X147105762Y-109611438D02*
X147248619Y-109563819D01*
X147248619Y-109563819D02*
X147343857Y-109563819D01*
X147343857Y-109563819D02*
X147486714Y-109611438D01*
X147486714Y-109611438D02*
X147534333Y-109659057D01*
X148391476Y-109563819D02*
X148201000Y-109563819D01*
X148201000Y-109563819D02*
X148105762Y-109611438D01*
X148105762Y-109611438D02*
X148058143Y-109659057D01*
X148058143Y-109659057D02*
X147962905Y-109801914D01*
X147962905Y-109801914D02*
X147915286Y-109992390D01*
X147915286Y-109992390D02*
X147915286Y-110373342D01*
X147915286Y-110373342D02*
X147962905Y-110468580D01*
X147962905Y-110468580D02*
X148010524Y-110516200D01*
X148010524Y-110516200D02*
X148105762Y-110563819D01*
X148105762Y-110563819D02*
X148296238Y-110563819D01*
X148296238Y-110563819D02*
X148391476Y-110516200D01*
X148391476Y-110516200D02*
X148439095Y-110468580D01*
X148439095Y-110468580D02*
X148486714Y-110373342D01*
X148486714Y-110373342D02*
X148486714Y-110135247D01*
X148486714Y-110135247D02*
X148439095Y-110040009D01*
X148439095Y-110040009D02*
X148391476Y-109992390D01*
X148391476Y-109992390D02*
X148296238Y-109944771D01*
X148296238Y-109944771D02*
X148105762Y-109944771D01*
X148105762Y-109944771D02*
X148010524Y-109992390D01*
X148010524Y-109992390D02*
X147962905Y-110040009D01*
X147962905Y-110040009D02*
X147915286Y-110135247D01*
X169759333Y-95831819D02*
X169426000Y-95355628D01*
X169187905Y-95831819D02*
X169187905Y-94831819D01*
X169187905Y-94831819D02*
X169568857Y-94831819D01*
X169568857Y-94831819D02*
X169664095Y-94879438D01*
X169664095Y-94879438D02*
X169711714Y-94927057D01*
X169711714Y-94927057D02*
X169759333Y-95022295D01*
X169759333Y-95022295D02*
X169759333Y-95165152D01*
X169759333Y-95165152D02*
X169711714Y-95260390D01*
X169711714Y-95260390D02*
X169664095Y-95308009D01*
X169664095Y-95308009D02*
X169568857Y-95355628D01*
X169568857Y-95355628D02*
X169187905Y-95355628D01*
X170330762Y-95260390D02*
X170235524Y-95212771D01*
X170235524Y-95212771D02*
X170187905Y-95165152D01*
X170187905Y-95165152D02*
X170140286Y-95069914D01*
X170140286Y-95069914D02*
X170140286Y-95022295D01*
X170140286Y-95022295D02*
X170187905Y-94927057D01*
X170187905Y-94927057D02*
X170235524Y-94879438D01*
X170235524Y-94879438D02*
X170330762Y-94831819D01*
X170330762Y-94831819D02*
X170521238Y-94831819D01*
X170521238Y-94831819D02*
X170616476Y-94879438D01*
X170616476Y-94879438D02*
X170664095Y-94927057D01*
X170664095Y-94927057D02*
X170711714Y-95022295D01*
X170711714Y-95022295D02*
X170711714Y-95069914D01*
X170711714Y-95069914D02*
X170664095Y-95165152D01*
X170664095Y-95165152D02*
X170616476Y-95212771D01*
X170616476Y-95212771D02*
X170521238Y-95260390D01*
X170521238Y-95260390D02*
X170330762Y-95260390D01*
X170330762Y-95260390D02*
X170235524Y-95308009D01*
X170235524Y-95308009D02*
X170187905Y-95355628D01*
X170187905Y-95355628D02*
X170140286Y-95450866D01*
X170140286Y-95450866D02*
X170140286Y-95641342D01*
X170140286Y-95641342D02*
X170187905Y-95736580D01*
X170187905Y-95736580D02*
X170235524Y-95784200D01*
X170235524Y-95784200D02*
X170330762Y-95831819D01*
X170330762Y-95831819D02*
X170521238Y-95831819D01*
X170521238Y-95831819D02*
X170616476Y-95784200D01*
X170616476Y-95784200D02*
X170664095Y-95736580D01*
X170664095Y-95736580D02*
X170711714Y-95641342D01*
X170711714Y-95641342D02*
X170711714Y-95450866D01*
X170711714Y-95450866D02*
X170664095Y-95355628D01*
X170664095Y-95355628D02*
X170616476Y-95308009D01*
X170616476Y-95308009D02*
X170521238Y-95260390D01*
X156932333Y-111484580D02*
X156884714Y-111532200D01*
X156884714Y-111532200D02*
X156741857Y-111579819D01*
X156741857Y-111579819D02*
X156646619Y-111579819D01*
X156646619Y-111579819D02*
X156503762Y-111532200D01*
X156503762Y-111532200D02*
X156408524Y-111436961D01*
X156408524Y-111436961D02*
X156360905Y-111341723D01*
X156360905Y-111341723D02*
X156313286Y-111151247D01*
X156313286Y-111151247D02*
X156313286Y-111008390D01*
X156313286Y-111008390D02*
X156360905Y-110817914D01*
X156360905Y-110817914D02*
X156408524Y-110722676D01*
X156408524Y-110722676D02*
X156503762Y-110627438D01*
X156503762Y-110627438D02*
X156646619Y-110579819D01*
X156646619Y-110579819D02*
X156741857Y-110579819D01*
X156741857Y-110579819D02*
X156884714Y-110627438D01*
X156884714Y-110627438D02*
X156932333Y-110675057D01*
X157313286Y-110675057D02*
X157360905Y-110627438D01*
X157360905Y-110627438D02*
X157456143Y-110579819D01*
X157456143Y-110579819D02*
X157694238Y-110579819D01*
X157694238Y-110579819D02*
X157789476Y-110627438D01*
X157789476Y-110627438D02*
X157837095Y-110675057D01*
X157837095Y-110675057D02*
X157884714Y-110770295D01*
X157884714Y-110770295D02*
X157884714Y-110865533D01*
X157884714Y-110865533D02*
X157837095Y-111008390D01*
X157837095Y-111008390D02*
X157265667Y-111579819D01*
X157265667Y-111579819D02*
X157884714Y-111579819D01*
X173823333Y-91259819D02*
X173490000Y-90783628D01*
X173251905Y-91259819D02*
X173251905Y-90259819D01*
X173251905Y-90259819D02*
X173632857Y-90259819D01*
X173632857Y-90259819D02*
X173728095Y-90307438D01*
X173728095Y-90307438D02*
X173775714Y-90355057D01*
X173775714Y-90355057D02*
X173823333Y-90450295D01*
X173823333Y-90450295D02*
X173823333Y-90593152D01*
X173823333Y-90593152D02*
X173775714Y-90688390D01*
X173775714Y-90688390D02*
X173728095Y-90736009D01*
X173728095Y-90736009D02*
X173632857Y-90783628D01*
X173632857Y-90783628D02*
X173251905Y-90783628D01*
X174156667Y-90259819D02*
X174775714Y-90259819D01*
X174775714Y-90259819D02*
X174442381Y-90640771D01*
X174442381Y-90640771D02*
X174585238Y-90640771D01*
X174585238Y-90640771D02*
X174680476Y-90688390D01*
X174680476Y-90688390D02*
X174728095Y-90736009D01*
X174728095Y-90736009D02*
X174775714Y-90831247D01*
X174775714Y-90831247D02*
X174775714Y-91069342D01*
X174775714Y-91069342D02*
X174728095Y-91164580D01*
X174728095Y-91164580D02*
X174680476Y-91212200D01*
X174680476Y-91212200D02*
X174585238Y-91259819D01*
X174585238Y-91259819D02*
X174299524Y-91259819D01*
X174299524Y-91259819D02*
X174204286Y-91212200D01*
X174204286Y-91212200D02*
X174156667Y-91164580D01*
X168728819Y-110513666D02*
X168252628Y-110846999D01*
X168728819Y-111085094D02*
X167728819Y-111085094D01*
X167728819Y-111085094D02*
X167728819Y-110704142D01*
X167728819Y-110704142D02*
X167776438Y-110608904D01*
X167776438Y-110608904D02*
X167824057Y-110561285D01*
X167824057Y-110561285D02*
X167919295Y-110513666D01*
X167919295Y-110513666D02*
X168062152Y-110513666D01*
X168062152Y-110513666D02*
X168157390Y-110561285D01*
X168157390Y-110561285D02*
X168205009Y-110608904D01*
X168205009Y-110608904D02*
X168252628Y-110704142D01*
X168252628Y-110704142D02*
X168252628Y-111085094D01*
X168728819Y-109561285D02*
X168728819Y-110132713D01*
X168728819Y-109846999D02*
X167728819Y-109846999D01*
X167728819Y-109846999D02*
X167871676Y-109942237D01*
X167871676Y-109942237D02*
X167966914Y-110037475D01*
X167966914Y-110037475D02*
X168014533Y-110132713D01*
X172631267Y-99340200D02*
X172774124Y-99387819D01*
X172774124Y-99387819D02*
X173012219Y-99387819D01*
X173012219Y-99387819D02*
X173107457Y-99340200D01*
X173107457Y-99340200D02*
X173155076Y-99292580D01*
X173155076Y-99292580D02*
X173202695Y-99197342D01*
X173202695Y-99197342D02*
X173202695Y-99102104D01*
X173202695Y-99102104D02*
X173155076Y-99006866D01*
X173155076Y-99006866D02*
X173107457Y-98959247D01*
X173107457Y-98959247D02*
X173012219Y-98911628D01*
X173012219Y-98911628D02*
X172821743Y-98864009D01*
X172821743Y-98864009D02*
X172726505Y-98816390D01*
X172726505Y-98816390D02*
X172678886Y-98768771D01*
X172678886Y-98768771D02*
X172631267Y-98673533D01*
X172631267Y-98673533D02*
X172631267Y-98578295D01*
X172631267Y-98578295D02*
X172678886Y-98483057D01*
X172678886Y-98483057D02*
X172726505Y-98435438D01*
X172726505Y-98435438D02*
X172821743Y-98387819D01*
X172821743Y-98387819D02*
X173059838Y-98387819D01*
X173059838Y-98387819D02*
X173202695Y-98435438D01*
X173536029Y-98387819D02*
X173774124Y-99387819D01*
X173774124Y-99387819D02*
X173964600Y-98673533D01*
X173964600Y-98673533D02*
X174155076Y-99387819D01*
X174155076Y-99387819D02*
X174393172Y-98387819D01*
X175297933Y-99387819D02*
X174726505Y-99387819D01*
X175012219Y-99387819D02*
X175012219Y-98387819D01*
X175012219Y-98387819D02*
X174916981Y-98530676D01*
X174916981Y-98530676D02*
X174821743Y-98625914D01*
X174821743Y-98625914D02*
X174726505Y-98673533D01*
X159543809Y-113489628D02*
X159543809Y-113965819D01*
X159210476Y-112965819D02*
X159543809Y-113489628D01*
X159543809Y-113489628D02*
X159877142Y-112965819D01*
X160734285Y-113965819D02*
X160162857Y-113965819D01*
X160448571Y-113965819D02*
X160448571Y-112965819D01*
X160448571Y-112965819D02*
X160353333Y-113108676D01*
X160353333Y-113108676D02*
X160258095Y-113203914D01*
X160258095Y-113203914D02*
X160162857Y-113251533D01*
X169251333Y-99895819D02*
X168918000Y-99419628D01*
X168679905Y-99895819D02*
X168679905Y-98895819D01*
X168679905Y-98895819D02*
X169060857Y-98895819D01*
X169060857Y-98895819D02*
X169156095Y-98943438D01*
X169156095Y-98943438D02*
X169203714Y-98991057D01*
X169203714Y-98991057D02*
X169251333Y-99086295D01*
X169251333Y-99086295D02*
X169251333Y-99229152D01*
X169251333Y-99229152D02*
X169203714Y-99324390D01*
X169203714Y-99324390D02*
X169156095Y-99372009D01*
X169156095Y-99372009D02*
X169060857Y-99419628D01*
X169060857Y-99419628D02*
X168679905Y-99419628D01*
X170156095Y-98895819D02*
X169679905Y-98895819D01*
X169679905Y-98895819D02*
X169632286Y-99372009D01*
X169632286Y-99372009D02*
X169679905Y-99324390D01*
X169679905Y-99324390D02*
X169775143Y-99276771D01*
X169775143Y-99276771D02*
X170013238Y-99276771D01*
X170013238Y-99276771D02*
X170108476Y-99324390D01*
X170108476Y-99324390D02*
X170156095Y-99372009D01*
X170156095Y-99372009D02*
X170203714Y-99467247D01*
X170203714Y-99467247D02*
X170203714Y-99705342D01*
X170203714Y-99705342D02*
X170156095Y-99800580D01*
X170156095Y-99800580D02*
X170108476Y-99848200D01*
X170108476Y-99848200D02*
X170013238Y-99895819D01*
X170013238Y-99895819D02*
X169775143Y-99895819D01*
X169775143Y-99895819D02*
X169679905Y-99848200D01*
X169679905Y-99848200D02*
X169632286Y-99800580D01*
D13*
X149341337Y-101831318D02*
X149341337Y-102738461D01*
X149341337Y-102738461D02*
X149280860Y-102919889D01*
X149280860Y-102919889D02*
X149159908Y-103040842D01*
X149159908Y-103040842D02*
X148978479Y-103101318D01*
X148978479Y-103101318D02*
X148857527Y-103101318D01*
X149825146Y-101831318D02*
X150611337Y-101831318D01*
X150611337Y-101831318D02*
X150188003Y-102315127D01*
X150188003Y-102315127D02*
X150369432Y-102315127D01*
X150369432Y-102315127D02*
X150490384Y-102375603D01*
X150490384Y-102375603D02*
X150550860Y-102436080D01*
X150550860Y-102436080D02*
X150611337Y-102557032D01*
X150611337Y-102557032D02*
X150611337Y-102859413D01*
X150611337Y-102859413D02*
X150550860Y-102980365D01*
X150550860Y-102980365D02*
X150490384Y-103040842D01*
X150490384Y-103040842D02*
X150369432Y-103101318D01*
X150369432Y-103101318D02*
X150006575Y-103101318D01*
X150006575Y-103101318D02*
X149885622Y-103040842D01*
X149885622Y-103040842D02*
X149825146Y-102980365D01*
D11*
X164552333Y-107293580D02*
X164504714Y-107341200D01*
X164504714Y-107341200D02*
X164361857Y-107388819D01*
X164361857Y-107388819D02*
X164266619Y-107388819D01*
X164266619Y-107388819D02*
X164123762Y-107341200D01*
X164123762Y-107341200D02*
X164028524Y-107245961D01*
X164028524Y-107245961D02*
X163980905Y-107150723D01*
X163980905Y-107150723D02*
X163933286Y-106960247D01*
X163933286Y-106960247D02*
X163933286Y-106817390D01*
X163933286Y-106817390D02*
X163980905Y-106626914D01*
X163980905Y-106626914D02*
X164028524Y-106531676D01*
X164028524Y-106531676D02*
X164123762Y-106436438D01*
X164123762Y-106436438D02*
X164266619Y-106388819D01*
X164266619Y-106388819D02*
X164361857Y-106388819D01*
X164361857Y-106388819D02*
X164504714Y-106436438D01*
X164504714Y-106436438D02*
X164552333Y-106484057D01*
X165457095Y-106388819D02*
X164980905Y-106388819D01*
X164980905Y-106388819D02*
X164933286Y-106865009D01*
X164933286Y-106865009D02*
X164980905Y-106817390D01*
X164980905Y-106817390D02*
X165076143Y-106769771D01*
X165076143Y-106769771D02*
X165314238Y-106769771D01*
X165314238Y-106769771D02*
X165409476Y-106817390D01*
X165409476Y-106817390D02*
X165457095Y-106865009D01*
X165457095Y-106865009D02*
X165504714Y-106960247D01*
X165504714Y-106960247D02*
X165504714Y-107198342D01*
X165504714Y-107198342D02*
X165457095Y-107293580D01*
X165457095Y-107293580D02*
X165409476Y-107341200D01*
X165409476Y-107341200D02*
X165314238Y-107388819D01*
X165314238Y-107388819D02*
X165076143Y-107388819D01*
X165076143Y-107388819D02*
X164980905Y-107341200D01*
X164980905Y-107341200D02*
X164933286Y-107293580D01*
X177466666Y-108928819D02*
X177466666Y-109643104D01*
X177466666Y-109643104D02*
X177419047Y-109785961D01*
X177419047Y-109785961D02*
X177323809Y-109881200D01*
X177323809Y-109881200D02*
X177180952Y-109928819D01*
X177180952Y-109928819D02*
X177085714Y-109928819D01*
X177895238Y-109024057D02*
X177942857Y-108976438D01*
X177942857Y-108976438D02*
X178038095Y-108928819D01*
X178038095Y-108928819D02*
X178276190Y-108928819D01*
X178276190Y-108928819D02*
X178371428Y-108976438D01*
X178371428Y-108976438D02*
X178419047Y-109024057D01*
X178419047Y-109024057D02*
X178466666Y-109119295D01*
X178466666Y-109119295D02*
X178466666Y-109214533D01*
X178466666Y-109214533D02*
X178419047Y-109357390D01*
X178419047Y-109357390D02*
X177847619Y-109928819D01*
X177847619Y-109928819D02*
X178466666Y-109928819D01*
X169251333Y-97863819D02*
X168918000Y-97387628D01*
X168679905Y-97863819D02*
X168679905Y-96863819D01*
X168679905Y-96863819D02*
X169060857Y-96863819D01*
X169060857Y-96863819D02*
X169156095Y-96911438D01*
X169156095Y-96911438D02*
X169203714Y-96959057D01*
X169203714Y-96959057D02*
X169251333Y-97054295D01*
X169251333Y-97054295D02*
X169251333Y-97197152D01*
X169251333Y-97197152D02*
X169203714Y-97292390D01*
X169203714Y-97292390D02*
X169156095Y-97340009D01*
X169156095Y-97340009D02*
X169060857Y-97387628D01*
X169060857Y-97387628D02*
X168679905Y-97387628D01*
X170108476Y-97197152D02*
X170108476Y-97863819D01*
X169870381Y-96816200D02*
X169632286Y-97530485D01*
X169632286Y-97530485D02*
X170251333Y-97530485D01*
X175156905Y-85417819D02*
X175156905Y-84417819D01*
X175156905Y-84417819D02*
X175395000Y-84417819D01*
X175395000Y-84417819D02*
X175537857Y-84465438D01*
X175537857Y-84465438D02*
X175633095Y-84560676D01*
X175633095Y-84560676D02*
X175680714Y-84655914D01*
X175680714Y-84655914D02*
X175728333Y-84846390D01*
X175728333Y-84846390D02*
X175728333Y-84989247D01*
X175728333Y-84989247D02*
X175680714Y-85179723D01*
X175680714Y-85179723D02*
X175633095Y-85274961D01*
X175633095Y-85274961D02*
X175537857Y-85370200D01*
X175537857Y-85370200D02*
X175395000Y-85417819D01*
X175395000Y-85417819D02*
X175156905Y-85417819D01*
X176680714Y-85417819D02*
X176109286Y-85417819D01*
X176395000Y-85417819D02*
X176395000Y-84417819D01*
X176395000Y-84417819D02*
X176299762Y-84560676D01*
X176299762Y-84560676D02*
X176204524Y-84655914D01*
X176204524Y-84655914D02*
X176109286Y-84703533D01*
X139787333Y-110214580D02*
X139739714Y-110262200D01*
X139739714Y-110262200D02*
X139596857Y-110309819D01*
X139596857Y-110309819D02*
X139501619Y-110309819D01*
X139501619Y-110309819D02*
X139358762Y-110262200D01*
X139358762Y-110262200D02*
X139263524Y-110166961D01*
X139263524Y-110166961D02*
X139215905Y-110071723D01*
X139215905Y-110071723D02*
X139168286Y-109881247D01*
X139168286Y-109881247D02*
X139168286Y-109738390D01*
X139168286Y-109738390D02*
X139215905Y-109547914D01*
X139215905Y-109547914D02*
X139263524Y-109452676D01*
X139263524Y-109452676D02*
X139358762Y-109357438D01*
X139358762Y-109357438D02*
X139501619Y-109309819D01*
X139501619Y-109309819D02*
X139596857Y-109309819D01*
X139596857Y-109309819D02*
X139739714Y-109357438D01*
X139739714Y-109357438D02*
X139787333Y-109405057D01*
X140358762Y-109738390D02*
X140263524Y-109690771D01*
X140263524Y-109690771D02*
X140215905Y-109643152D01*
X140215905Y-109643152D02*
X140168286Y-109547914D01*
X140168286Y-109547914D02*
X140168286Y-109500295D01*
X140168286Y-109500295D02*
X140215905Y-109405057D01*
X140215905Y-109405057D02*
X140263524Y-109357438D01*
X140263524Y-109357438D02*
X140358762Y-109309819D01*
X140358762Y-109309819D02*
X140549238Y-109309819D01*
X140549238Y-109309819D02*
X140644476Y-109357438D01*
X140644476Y-109357438D02*
X140692095Y-109405057D01*
X140692095Y-109405057D02*
X140739714Y-109500295D01*
X140739714Y-109500295D02*
X140739714Y-109547914D01*
X140739714Y-109547914D02*
X140692095Y-109643152D01*
X140692095Y-109643152D02*
X140644476Y-109690771D01*
X140644476Y-109690771D02*
X140549238Y-109738390D01*
X140549238Y-109738390D02*
X140358762Y-109738390D01*
X140358762Y-109738390D02*
X140263524Y-109786009D01*
X140263524Y-109786009D02*
X140215905Y-109833628D01*
X140215905Y-109833628D02*
X140168286Y-109928866D01*
X140168286Y-109928866D02*
X140168286Y-110119342D01*
X140168286Y-110119342D02*
X140215905Y-110214580D01*
X140215905Y-110214580D02*
X140263524Y-110262200D01*
X140263524Y-110262200D02*
X140358762Y-110309819D01*
X140358762Y-110309819D02*
X140549238Y-110309819D01*
X140549238Y-110309819D02*
X140644476Y-110262200D01*
X140644476Y-110262200D02*
X140692095Y-110214580D01*
X140692095Y-110214580D02*
X140739714Y-110119342D01*
X140739714Y-110119342D02*
X140739714Y-109928866D01*
X140739714Y-109928866D02*
X140692095Y-109833628D01*
X140692095Y-109833628D02*
X140644476Y-109786009D01*
X140644476Y-109786009D02*
X140549238Y-109738390D01*
X171664333Y-108690580D02*
X171616714Y-108738200D01*
X171616714Y-108738200D02*
X171473857Y-108785819D01*
X171473857Y-108785819D02*
X171378619Y-108785819D01*
X171378619Y-108785819D02*
X171235762Y-108738200D01*
X171235762Y-108738200D02*
X171140524Y-108642961D01*
X171140524Y-108642961D02*
X171092905Y-108547723D01*
X171092905Y-108547723D02*
X171045286Y-108357247D01*
X171045286Y-108357247D02*
X171045286Y-108214390D01*
X171045286Y-108214390D02*
X171092905Y-108023914D01*
X171092905Y-108023914D02*
X171140524Y-107928676D01*
X171140524Y-107928676D02*
X171235762Y-107833438D01*
X171235762Y-107833438D02*
X171378619Y-107785819D01*
X171378619Y-107785819D02*
X171473857Y-107785819D01*
X171473857Y-107785819D02*
X171616714Y-107833438D01*
X171616714Y-107833438D02*
X171664333Y-107881057D01*
X172616714Y-108785819D02*
X172045286Y-108785819D01*
X172331000Y-108785819D02*
X172331000Y-107785819D01*
X172331000Y-107785819D02*
X172235762Y-107928676D01*
X172235762Y-107928676D02*
X172140524Y-108023914D01*
X172140524Y-108023914D02*
X172045286Y-108071533D01*
X169759333Y-104848819D02*
X169426000Y-104372628D01*
X169187905Y-104848819D02*
X169187905Y-103848819D01*
X169187905Y-103848819D02*
X169568857Y-103848819D01*
X169568857Y-103848819D02*
X169664095Y-103896438D01*
X169664095Y-103896438D02*
X169711714Y-103944057D01*
X169711714Y-103944057D02*
X169759333Y-104039295D01*
X169759333Y-104039295D02*
X169759333Y-104182152D01*
X169759333Y-104182152D02*
X169711714Y-104277390D01*
X169711714Y-104277390D02*
X169664095Y-104325009D01*
X169664095Y-104325009D02*
X169568857Y-104372628D01*
X169568857Y-104372628D02*
X169187905Y-104372628D01*
X170092667Y-103848819D02*
X170759333Y-103848819D01*
X170759333Y-103848819D02*
X170330762Y-104848819D01*
X173823333Y-101674819D02*
X173490000Y-101198628D01*
X173251905Y-101674819D02*
X173251905Y-100674819D01*
X173251905Y-100674819D02*
X173632857Y-100674819D01*
X173632857Y-100674819D02*
X173728095Y-100722438D01*
X173728095Y-100722438D02*
X173775714Y-100770057D01*
X173775714Y-100770057D02*
X173823333Y-100865295D01*
X173823333Y-100865295D02*
X173823333Y-101008152D01*
X173823333Y-101008152D02*
X173775714Y-101103390D01*
X173775714Y-101103390D02*
X173728095Y-101151009D01*
X173728095Y-101151009D02*
X173632857Y-101198628D01*
X173632857Y-101198628D02*
X173251905Y-101198628D01*
X174204286Y-100770057D02*
X174251905Y-100722438D01*
X174251905Y-100722438D02*
X174347143Y-100674819D01*
X174347143Y-100674819D02*
X174585238Y-100674819D01*
X174585238Y-100674819D02*
X174680476Y-100722438D01*
X174680476Y-100722438D02*
X174728095Y-100770057D01*
X174728095Y-100770057D02*
X174775714Y-100865295D01*
X174775714Y-100865295D02*
X174775714Y-100960533D01*
X174775714Y-100960533D02*
X174728095Y-101103390D01*
X174728095Y-101103390D02*
X174156667Y-101674819D01*
X174156667Y-101674819D02*
X174775714Y-101674819D01*
X156678333Y-122435580D02*
X156630714Y-122483200D01*
X156630714Y-122483200D02*
X156487857Y-122530819D01*
X156487857Y-122530819D02*
X156392619Y-122530819D01*
X156392619Y-122530819D02*
X156249762Y-122483200D01*
X156249762Y-122483200D02*
X156154524Y-122387961D01*
X156154524Y-122387961D02*
X156106905Y-122292723D01*
X156106905Y-122292723D02*
X156059286Y-122102247D01*
X156059286Y-122102247D02*
X156059286Y-121959390D01*
X156059286Y-121959390D02*
X156106905Y-121768914D01*
X156106905Y-121768914D02*
X156154524Y-121673676D01*
X156154524Y-121673676D02*
X156249762Y-121578438D01*
X156249762Y-121578438D02*
X156392619Y-121530819D01*
X156392619Y-121530819D02*
X156487857Y-121530819D01*
X156487857Y-121530819D02*
X156630714Y-121578438D01*
X156630714Y-121578438D02*
X156678333Y-121626057D01*
X157011667Y-121530819D02*
X157630714Y-121530819D01*
X157630714Y-121530819D02*
X157297381Y-121911771D01*
X157297381Y-121911771D02*
X157440238Y-121911771D01*
X157440238Y-121911771D02*
X157535476Y-121959390D01*
X157535476Y-121959390D02*
X157583095Y-122007009D01*
X157583095Y-122007009D02*
X157630714Y-122102247D01*
X157630714Y-122102247D02*
X157630714Y-122340342D01*
X157630714Y-122340342D02*
X157583095Y-122435580D01*
X157583095Y-122435580D02*
X157535476Y-122483200D01*
X157535476Y-122483200D02*
X157440238Y-122530819D01*
X157440238Y-122530819D02*
X157154524Y-122530819D01*
X157154524Y-122530819D02*
X157059286Y-122483200D01*
X157059286Y-122483200D02*
X157011667Y-122435580D01*
X162901333Y-109833580D02*
X162853714Y-109881200D01*
X162853714Y-109881200D02*
X162710857Y-109928819D01*
X162710857Y-109928819D02*
X162615619Y-109928819D01*
X162615619Y-109928819D02*
X162472762Y-109881200D01*
X162472762Y-109881200D02*
X162377524Y-109785961D01*
X162377524Y-109785961D02*
X162329905Y-109690723D01*
X162329905Y-109690723D02*
X162282286Y-109500247D01*
X162282286Y-109500247D02*
X162282286Y-109357390D01*
X162282286Y-109357390D02*
X162329905Y-109166914D01*
X162329905Y-109166914D02*
X162377524Y-109071676D01*
X162377524Y-109071676D02*
X162472762Y-108976438D01*
X162472762Y-108976438D02*
X162615619Y-108928819D01*
X162615619Y-108928819D02*
X162710857Y-108928819D01*
X162710857Y-108928819D02*
X162853714Y-108976438D01*
X162853714Y-108976438D02*
X162901333Y-109024057D01*
X163758476Y-109262152D02*
X163758476Y-109928819D01*
X163520381Y-108881200D02*
X163282286Y-109595485D01*
X163282286Y-109595485D02*
X163901333Y-109595485D01*
X135382095Y-112865819D02*
X135382095Y-113675342D01*
X135382095Y-113675342D02*
X135429714Y-113770580D01*
X135429714Y-113770580D02*
X135477333Y-113818200D01*
X135477333Y-113818200D02*
X135572571Y-113865819D01*
X135572571Y-113865819D02*
X135763047Y-113865819D01*
X135763047Y-113865819D02*
X135858285Y-113818200D01*
X135858285Y-113818200D02*
X135905904Y-113770580D01*
X135905904Y-113770580D02*
X135953523Y-113675342D01*
X135953523Y-113675342D02*
X135953523Y-112865819D01*
X136334476Y-112865819D02*
X136953523Y-112865819D01*
X136953523Y-112865819D02*
X136620190Y-113246771D01*
X136620190Y-113246771D02*
X136763047Y-113246771D01*
X136763047Y-113246771D02*
X136858285Y-113294390D01*
X136858285Y-113294390D02*
X136905904Y-113342009D01*
X136905904Y-113342009D02*
X136953523Y-113437247D01*
X136953523Y-113437247D02*
X136953523Y-113675342D01*
X136953523Y-113675342D02*
X136905904Y-113770580D01*
X136905904Y-113770580D02*
X136858285Y-113818200D01*
X136858285Y-113818200D02*
X136763047Y-113865819D01*
X136763047Y-113865819D02*
X136477333Y-113865819D01*
X136477333Y-113865819D02*
X136382095Y-113818200D01*
X136382095Y-113818200D02*
X136334476Y-113770580D01*
X149860095Y-111664819D02*
X149860095Y-112474342D01*
X149860095Y-112474342D02*
X149907714Y-112569580D01*
X149907714Y-112569580D02*
X149955333Y-112617200D01*
X149955333Y-112617200D02*
X150050571Y-112664819D01*
X150050571Y-112664819D02*
X150241047Y-112664819D01*
X150241047Y-112664819D02*
X150336285Y-112617200D01*
X150336285Y-112617200D02*
X150383904Y-112569580D01*
X150383904Y-112569580D02*
X150431523Y-112474342D01*
X150431523Y-112474342D02*
X150431523Y-111664819D01*
X150860095Y-111760057D02*
X150907714Y-111712438D01*
X150907714Y-111712438D02*
X151002952Y-111664819D01*
X151002952Y-111664819D02*
X151241047Y-111664819D01*
X151241047Y-111664819D02*
X151336285Y-111712438D01*
X151336285Y-111712438D02*
X151383904Y-111760057D01*
X151383904Y-111760057D02*
X151431523Y-111855295D01*
X151431523Y-111855295D02*
X151431523Y-111950533D01*
X151431523Y-111950533D02*
X151383904Y-112093390D01*
X151383904Y-112093390D02*
X150812476Y-112664819D01*
X150812476Y-112664819D02*
X151431523Y-112664819D01*
%TO.C,U1*%
X163380000Y-114231000D02*
X163380000Y-114456000D01*
X163380000Y-114231000D02*
X163705000Y-114231000D01*
X163380000Y-114456000D02*
X161955000Y-114456000D01*
X163380000Y-121481000D02*
X163380000Y-121156000D01*
X163380000Y-121481000D02*
X163705000Y-121481000D01*
X170630000Y-114231000D02*
X170305000Y-114231000D01*
X170630000Y-114231000D02*
X170630000Y-114556000D01*
X170630000Y-121481000D02*
X170305000Y-121481000D01*
X170630000Y-121481000D02*
X170630000Y-121156000D01*
D14*
%TO.C,C7*%
X142956000Y-123008000D02*
X144826000Y-123008000D01*
X144826000Y-123008000D02*
X144826000Y-118923000D01*
X142956000Y-118923000D02*
X142956000Y-123008000D01*
%TO.C,R6*%
X166851064Y-102589000D02*
X166396936Y-102589000D01*
X166851064Y-101119000D02*
X166396936Y-101119000D01*
%TO.C,C6*%
X147962252Y-112495000D02*
X147439748Y-112495000D01*
X147962252Y-111025000D02*
X147439748Y-111025000D01*
%TO.C,R8*%
X166851064Y-96112000D02*
X166396936Y-96112000D01*
X166851064Y-94642000D02*
X166396936Y-94642000D01*
%TO.C,C2*%
X157360252Y-113511000D02*
X156837748Y-113511000D01*
X157360252Y-112041000D02*
X156837748Y-112041000D01*
%TO.C,R3*%
X173762936Y-88165000D02*
X174217064Y-88165000D01*
X173762936Y-89635000D02*
X174217064Y-89635000D01*
%TO.C,R1*%
X167359000Y-110119936D02*
X167359000Y-110574064D01*
X165889000Y-110119936D02*
X165889000Y-110574064D01*
%TO.C,SW1*%
X176060000Y-98090000D02*
X171920000Y-98090000D01*
X176060000Y-97790000D02*
X176060000Y-98090000D01*
X176060000Y-94950000D02*
X176060000Y-95250000D01*
X171920000Y-98090000D02*
X171920000Y-97790000D01*
X171920000Y-95250000D02*
X171920000Y-94950000D01*
X171920000Y-94950000D02*
X176060000Y-94950000D01*
%TO.C,Y1*%
X154145000Y-114336000D02*
X154145000Y-118836000D01*
X154145000Y-118836000D02*
X159545000Y-118836000D01*
%TO.C,R5*%
X166851064Y-100176000D02*
X166396936Y-100176000D01*
X166851064Y-98706000D02*
X166396936Y-98706000D01*
D13*
%TO.C,J3*%
X162306000Y-104109000D02*
X162306000Y-86482330D01*
X162306000Y-82696000D02*
X135706000Y-82696000D01*
X135706000Y-107696000D02*
X135706000Y-86482330D01*
D15*
X142055670Y-109833330D02*
G75*
G03*
X142055670Y-109833330I-209335J0D01*
G01*
D14*
%TO.C,C5*%
X165790000Y-105999000D02*
X165790000Y-107869000D01*
X165790000Y-107869000D02*
X169875000Y-107869000D01*
X169875000Y-105999000D02*
X165790000Y-105999000D01*
%TO.C,J2*%
X173026000Y-110263000D02*
X179526000Y-110263000D01*
X173026000Y-114663000D02*
X173026000Y-110263000D01*
X173026000Y-118763000D02*
X173026000Y-118763000D01*
X173026000Y-123163000D02*
X173026000Y-118763000D01*
X179526000Y-110263000D02*
X179526000Y-123163000D01*
X179526000Y-123163000D02*
X173026000Y-123163000D01*
%TO.C,R4*%
X166851064Y-98144000D02*
X166396936Y-98144000D01*
X166851064Y-96674000D02*
X166396936Y-96674000D01*
%TO.C,D1*%
X172150000Y-83970502D02*
X172250000Y-83970502D01*
X172250000Y-83970502D02*
X172250000Y-85970502D01*
X172250000Y-85970502D02*
X172150000Y-85970502D01*
X172150000Y-85970502D02*
X172150000Y-83970502D01*
X174150000Y-85970502D02*
X172450000Y-85970502D01*
X174150000Y-83970502D02*
X174150000Y-85970502D01*
X172450000Y-83970502D02*
X174150000Y-83970502D01*
%TO.C,C8*%
X142589000Y-113651000D02*
X142589000Y-110631000D01*
X142589000Y-110631000D02*
X138204000Y-110631000D01*
X138204000Y-113651000D02*
X142589000Y-113651000D01*
%TO.C,C1*%
X175140252Y-109066000D02*
X174617748Y-109066000D01*
X175140252Y-107596000D02*
X174617748Y-107596000D01*
%TO.C,R7*%
X166851064Y-104621000D02*
X166396936Y-104621000D01*
X166851064Y-103151000D02*
X166396936Y-103151000D01*
%TO.C,R2*%
X173762936Y-102135000D02*
X174217064Y-102135000D01*
X173762936Y-103605000D02*
X174217064Y-103605000D01*
%TO.C,C3*%
X157106252Y-121131000D02*
X156583748Y-121131000D01*
X157106252Y-119661000D02*
X156583748Y-119661000D01*
%TO.C,C4*%
X163329252Y-111860000D02*
X162806748Y-111860000D01*
X163329252Y-110390000D02*
X162806748Y-110390000D01*
%TO.C,U3*%
X135401000Y-122718000D02*
X135401000Y-116708000D01*
X142221000Y-120468000D02*
X142221000Y-116708000D01*
X135401000Y-116708000D02*
X136661000Y-116708000D01*
X142221000Y-116708000D02*
X140961000Y-116708000D01*
%TO.C,U2*%
X149479000Y-113050000D02*
X146029000Y-113050000D01*
X149479000Y-113050000D02*
X151429000Y-113050000D01*
X149479000Y-123170000D02*
X147529000Y-123170000D01*
X149479000Y-123170000D02*
X151429000Y-123170000D01*
%TD*%
M02*
