%TF.GenerationSoftware,KiCad,Pcbnew,7.0.9*%
%TF.CreationDate,2023-12-04T13:48:36-06:00*%
%TF.ProjectId,smartportsd-smd,736d6172-7470-46f7-9274-73642d736d64,rev?*%
%TF.SameCoordinates,Original*%
%TF.FileFunction,Soldermask,Top*%
%TF.FilePolarity,Negative*%
%FSLAX46Y46*%
G04 Gerber Fmt 4.6, Leading zero omitted, Abs format (unit mm)*
G04 Created by KiCad (PCBNEW 7.0.9) date 2023-12-04 13:48:36*
%MOMM*%
%LPD*%
G01*
G04 APERTURE LIST*
G04 Aperture macros list*
%AMRoundRect*
0 Rectangle with rounded corners*
0 $1 Rounding radius*
0 $2 $3 $4 $5 $6 $7 $8 $9 X,Y pos of 4 corners*
0 Add a 4 corners polygon primitive as box body*
4,1,4,$2,$3,$4,$5,$6,$7,$8,$9,$2,$3,0*
0 Add four circle primitives for the rounded corners*
1,1,$1+$1,$2,$3*
1,1,$1+$1,$4,$5*
1,1,$1+$1,$6,$7*
1,1,$1+$1,$8,$9*
0 Add four rect primitives between the rounded corners*
20,1,$1+$1,$2,$3,$4,$5,0*
20,1,$1+$1,$4,$5,$6,$7,0*
20,1,$1+$1,$6,$7,$8,$9,0*
20,1,$1+$1,$8,$9,$2,$3,0*%
G04 Aperture macros list end*
%ADD10R,1.600000X0.550000*%
%ADD11R,0.550000X1.600000*%
%ADD12RoundRect,0.250000X0.425000X-0.537500X0.425000X0.537500X-0.425000X0.537500X-0.425000X-0.537500X0*%
%ADD13RoundRect,0.250000X0.350000X0.450000X-0.350000X0.450000X-0.350000X-0.450000X0.350000X-0.450000X0*%
%ADD14RoundRect,0.250000X0.337500X0.475000X-0.337500X0.475000X-0.337500X-0.475000X0.337500X-0.475000X0*%
%ADD15RoundRect,0.250000X-0.350000X-0.450000X0.350000X-0.450000X0.350000X0.450000X-0.350000X0.450000X0*%
%ADD16RoundRect,0.250000X-0.450000X0.350000X-0.450000X-0.350000X0.450000X-0.350000X0.450000X0.350000X0*%
%ADD17RoundRect,0.200000X0.200000X0.800000X-0.200000X0.800000X-0.200000X-0.800000X0.200000X-0.800000X0*%
%ADD18R,2.100000X1.800000*%
%ADD19R,1.000000X1.500000*%
%ADD20R,0.700000X1.500000*%
%ADD21R,1.500000X2.800000*%
%ADD22C,1.650000*%
%ADD23C,2.200000*%
%ADD24RoundRect,0.250000X-0.537500X-0.425000X0.537500X-0.425000X0.537500X0.425000X-0.537500X0.425000X0*%
%ADD25RoundRect,0.250000X-0.600000X-0.600000X0.600000X-0.600000X0.600000X0.600000X-0.600000X0.600000X0*%
%ADD26C,1.700000*%
%ADD27R,1.500000X1.500000*%
%ADD28R,0.900000X0.900000*%
%ADD29RoundRect,0.250001X0.499999X0.924999X-0.499999X0.924999X-0.499999X-0.924999X0.499999X-0.924999X0*%
%ADD30R,1.500000X2.000000*%
%ADD31R,3.800000X2.000000*%
%ADD32RoundRect,0.150000X-0.825000X-0.150000X0.825000X-0.150000X0.825000X0.150000X-0.825000X0.150000X0*%
%ADD33C,2.700000*%
%ADD34O,2.100000X2.300000*%
G04 APERTURE END LIST*
D10*
%TO.C,U1*%
X162755000Y-115056000D03*
X162755000Y-115856000D03*
X162755000Y-116656000D03*
X162755000Y-117456000D03*
X162755000Y-118256000D03*
X162755000Y-119056000D03*
X162755000Y-119856000D03*
X162755000Y-120656000D03*
D11*
X164205000Y-122106000D03*
X165005000Y-122106000D03*
X165805000Y-122106000D03*
X166605000Y-122106000D03*
X167405000Y-122106000D03*
X168205000Y-122106000D03*
X169005000Y-122106000D03*
X169805000Y-122106000D03*
D10*
X171255000Y-120656000D03*
X171255000Y-119856000D03*
X171255000Y-119056000D03*
X171255000Y-118256000D03*
X171255000Y-117456000D03*
X171255000Y-116656000D03*
X171255000Y-115856000D03*
X171255000Y-115056000D03*
D11*
X169805000Y-113606000D03*
X169005000Y-113606000D03*
X168205000Y-113606000D03*
X167405000Y-113606000D03*
X166605000Y-113606000D03*
X165805000Y-113606000D03*
X165005000Y-113606000D03*
X164205000Y-113606000D03*
%TD*%
D12*
%TO.C,C7*%
X143891000Y-121960500D03*
X143891000Y-119085500D03*
%TD*%
D13*
%TO.C,R6*%
X167624000Y-101854000D03*
X165624000Y-101854000D03*
%TD*%
D14*
%TO.C,C6*%
X148738500Y-111760000D03*
X146663500Y-111760000D03*
%TD*%
D13*
%TO.C,R8*%
X167624000Y-95377000D03*
X165624000Y-95377000D03*
%TD*%
D14*
%TO.C,C2*%
X158136500Y-112776000D03*
X156061500Y-112776000D03*
%TD*%
D15*
%TO.C,R3*%
X172990000Y-88900000D03*
X174990000Y-88900000D03*
%TD*%
D16*
%TO.C,R1*%
X166624000Y-109347000D03*
X166624000Y-111347000D03*
%TD*%
D17*
%TO.C,SW1*%
X176090000Y-96520000D03*
X171890000Y-96520000D03*
%TD*%
D18*
%TO.C,Y1*%
X155395000Y-117736000D03*
X158295000Y-117736000D03*
X158295000Y-115436000D03*
X155395000Y-115436000D03*
%TD*%
D13*
%TO.C,R5*%
X167624000Y-99441000D03*
X165624000Y-99441000D03*
%TD*%
D19*
%TO.C,J3*%
X142131000Y-108146000D03*
X144631000Y-108146000D03*
X147131000Y-108146000D03*
X149631000Y-108146000D03*
X152131000Y-108146000D03*
X154631000Y-108146000D03*
X157061000Y-108146000D03*
X158761000Y-108146000D03*
X139631000Y-108146000D03*
D20*
X159961000Y-108146000D03*
X161161000Y-108146000D03*
D21*
X162656000Y-84646000D03*
X135356000Y-84646000D03*
X162656000Y-106146000D03*
X137556000Y-106146000D03*
D22*
X160506000Y-105346000D03*
D23*
X139506000Y-105346000D03*
%TD*%
D24*
%TO.C,C5*%
X166837500Y-106934000D03*
X169712500Y-106934000D03*
%TD*%
D25*
%TO.C,J2*%
X175006000Y-114173000D03*
D26*
X177546000Y-114173000D03*
X175006000Y-116713000D03*
X177546000Y-116713000D03*
X175006000Y-119253000D03*
X177546000Y-119253000D03*
%TD*%
D13*
%TO.C,R4*%
X167624000Y-97409000D03*
X165624000Y-97409000D03*
%TD*%
D27*
%TO.C,D1*%
X169700000Y-84970502D03*
X173200000Y-84970502D03*
D28*
X171450000Y-85520502D03*
%TD*%
D29*
%TO.C,C8*%
X141579000Y-112141000D03*
X138329000Y-112141000D03*
%TD*%
D14*
%TO.C,C1*%
X175916500Y-108331000D03*
X173841500Y-108331000D03*
%TD*%
D13*
%TO.C,R7*%
X167624000Y-103886000D03*
X165624000Y-103886000D03*
%TD*%
D15*
%TO.C,R2*%
X172990000Y-102870000D03*
X174990000Y-102870000D03*
%TD*%
D14*
%TO.C,C3*%
X157882500Y-120396000D03*
X155807500Y-120396000D03*
%TD*%
%TO.C,C4*%
X164105500Y-111125000D03*
X162030500Y-111125000D03*
%TD*%
D30*
%TO.C,U3*%
X136511000Y-121768000D03*
X138811000Y-121768000D03*
D31*
X138811000Y-115468000D03*
D30*
X141111000Y-121768000D03*
%TD*%
D32*
%TO.C,U2*%
X147004000Y-113665000D03*
X147004000Y-114935000D03*
X147004000Y-116205000D03*
X147004000Y-117475000D03*
X147004000Y-118745000D03*
X147004000Y-120015000D03*
X147004000Y-121285000D03*
X147004000Y-122555000D03*
X151954000Y-122555000D03*
X151954000Y-121285000D03*
X151954000Y-120015000D03*
X151954000Y-118745000D03*
X151954000Y-117475000D03*
X151954000Y-116205000D03*
X151954000Y-114935000D03*
X151954000Y-113665000D03*
%TD*%
D33*
%TO.C,J1*%
X176407200Y-128270000D03*
X137617200Y-128270000D03*
D34*
X169477200Y-126850000D03*
X166707200Y-126850000D03*
X163937200Y-126850000D03*
X161167200Y-126850000D03*
X158397200Y-126850000D03*
X155627200Y-126850000D03*
X152857200Y-126850000D03*
X150087200Y-126850000D03*
X147317200Y-126850000D03*
X144547200Y-126850000D03*
X168092200Y-129690000D03*
X165322200Y-129690000D03*
X162552200Y-129690000D03*
X159782200Y-129690000D03*
X157012200Y-129690000D03*
X154242200Y-129690000D03*
X151472200Y-129690000D03*
X148702200Y-129690000D03*
X145932200Y-129690000D03*
%TD*%
M02*
