%TF.GenerationSoftware,KiCad,Pcbnew,7.0.9*%
%TF.CreationDate,2023-12-04T13:48:36-06:00*%
%TF.ProjectId,smartportsd-smd,736d6172-7470-46f7-9274-73642d736d64,rev?*%
%TF.SameCoordinates,Original*%
%TF.FileFunction,Copper,L2,Bot*%
%TF.FilePolarity,Positive*%
%FSLAX46Y46*%
G04 Gerber Fmt 4.6, Leading zero omitted, Abs format (unit mm)*
G04 Created by KiCad (PCBNEW 7.0.9) date 2023-12-04 13:48:36*
%MOMM*%
%LPD*%
G01*
G04 APERTURE LIST*
G04 Aperture macros list*
%AMRoundRect*
0 Rectangle with rounded corners*
0 $1 Rounding radius*
0 $2 $3 $4 $5 $6 $7 $8 $9 X,Y pos of 4 corners*
0 Add a 4 corners polygon primitive as box body*
4,1,4,$2,$3,$4,$5,$6,$7,$8,$9,$2,$3,0*
0 Add four circle primitives for the rounded corners*
1,1,$1+$1,$2,$3*
1,1,$1+$1,$4,$5*
1,1,$1+$1,$6,$7*
1,1,$1+$1,$8,$9*
0 Add four rect primitives between the rounded corners*
20,1,$1+$1,$2,$3,$4,$5,0*
20,1,$1+$1,$4,$5,$6,$7,0*
20,1,$1+$1,$6,$7,$8,$9,0*
20,1,$1+$1,$8,$9,$2,$3,0*%
G04 Aperture macros list end*
%TA.AperFunction,ComponentPad*%
%ADD10C,1.650000*%
%TD*%
%TA.AperFunction,ComponentPad*%
%ADD11C,2.200000*%
%TD*%
%TA.AperFunction,ComponentPad*%
%ADD12RoundRect,0.250000X-0.600000X-0.600000X0.600000X-0.600000X0.600000X0.600000X-0.600000X0.600000X0*%
%TD*%
%TA.AperFunction,ComponentPad*%
%ADD13C,1.700000*%
%TD*%
%TA.AperFunction,ComponentPad*%
%ADD14O,2.100000X2.300000*%
%TD*%
%TA.AperFunction,ViaPad*%
%ADD15C,0.800000*%
%TD*%
%TA.AperFunction,ViaPad*%
%ADD16C,0.600000*%
%TD*%
%TA.AperFunction,Conductor*%
%ADD17C,0.250000*%
%TD*%
%TA.AperFunction,Conductor*%
%ADD18C,0.200000*%
%TD*%
%TA.AperFunction,Conductor*%
%ADD19C,0.500000*%
%TD*%
G04 APERTURE END LIST*
D10*
%TO.P,J3,16*%
%TO.N,N/C*%
X160506000Y-105346000D03*
D11*
%TO.P,J3,17*%
X139506000Y-105346000D03*
%TD*%
D12*
%TO.P,J2,1,Pin_1*%
%TO.N,/MISO_D12*%
X175006000Y-114173000D03*
D13*
%TO.P,J2,2,Pin_2*%
%TO.N,+5V*%
X177546000Y-114173000D03*
%TO.P,J2,3,Pin_3*%
%TO.N,/SCK_D13*%
X175006000Y-116713000D03*
%TO.P,J2,4,Pin_4*%
%TO.N,/MOSI_D11*%
X177546000Y-116713000D03*
%TO.P,J2,5,Pin_5*%
%TO.N,/RESET*%
X175006000Y-119253000D03*
%TO.P,J2,6,Pin_6*%
%TO.N,GND*%
X177546000Y-119253000D03*
%TD*%
D14*
%TO.P,J1,1,1*%
%TO.N,GND*%
X169477200Y-126850000D03*
%TO.P,J1,2,2*%
X166707200Y-126850000D03*
%TO.P,J1,3,3*%
X163937200Y-126850000D03*
%TO.P,J1,4,4*%
%TO.N,unconnected-(J1-Pad4)*%
X161167200Y-126850000D03*
%TO.P,J1,5,5*%
%TO.N,unconnected-(J1-Pad5)*%
X158397200Y-126850000D03*
%TO.P,J1,6,6*%
%TO.N,+5V*%
X155627200Y-126850000D03*
%TO.P,J1,7,7*%
%TO.N,unconnected-(J1-Pad7)*%
X152857200Y-126850000D03*
%TO.P,J1,8,8*%
%TO.N,unconnected-(J1-Pad8)*%
X150087200Y-126850000D03*
%TO.P,J1,9,9*%
%TO.N,unconnected-(J1-Pad9)*%
X147317200Y-126850000D03*
%TO.P,J1,10,10*%
%TO.N,/PA5_WR_PROT*%
X144547200Y-126850000D03*
%TO.P,J1,11,P11*%
%TO.N,/PD2_00*%
X168092200Y-129690000D03*
%TO.P,J1,12,P12*%
%TO.N,/PD3_01*%
X165322200Y-129690000D03*
%TO.P,J1,13,P13*%
%TO.N,/PD4_02*%
X162552200Y-129690000D03*
%TO.P,J1,14,P14*%
%TO.N,/PD5_03*%
X159782200Y-129690000D03*
%TO.P,J1,15,P15*%
%TO.N,unconnected-(J1-P15-Pad15)*%
X157012200Y-129690000D03*
%TO.P,J1,16,P16*%
%TO.N,unconnected-(J1-P16-Pad16)*%
X154242200Y-129690000D03*
%TO.P,J1,17,P17*%
%TO.N,unconnected-(J1-P17-Pad17)*%
X151472200Y-129690000D03*
%TO.P,J1,18,P18*%
%TO.N,/PD6_RD_DATA*%
X148702200Y-129690000D03*
%TO.P,J1,19,P19*%
%TO.N,/PD7_WR_DATA*%
X145932200Y-129690000D03*
%TD*%
D15*
%TO.N,GND*%
X139319000Y-101854000D03*
X164084000Y-116713000D03*
X147193000Y-106807000D03*
X172593000Y-128397000D03*
X141478000Y-117602000D03*
X136017000Y-118618000D03*
X137033000Y-112141000D03*
X142240000Y-115824000D03*
X137287000Y-118618000D03*
X141478000Y-118618000D03*
X155448000Y-114046000D03*
X176276000Y-88900000D03*
X176276000Y-102870000D03*
X165100000Y-111125000D03*
X141478000Y-119634000D03*
X169926000Y-117475000D03*
X172085000Y-129794000D03*
X136525000Y-123444000D03*
X175895000Y-109728000D03*
X172339000Y-125349000D03*
X160655000Y-117602000D03*
X149098000Y-92202000D03*
X136017000Y-117602000D03*
X140335000Y-117602000D03*
X137287000Y-117602000D03*
X140335000Y-119634000D03*
X159639000Y-84709000D03*
X154686000Y-106807000D03*
X169672000Y-105664000D03*
X172466000Y-126873000D03*
X152146000Y-112268000D03*
X162560000Y-113411000D03*
X171323000Y-124460000D03*
X138938000Y-84836000D03*
X136017000Y-119634000D03*
X137287000Y-119634000D03*
X158242000Y-119126000D03*
X140335000Y-118618000D03*
%TO.N,/PA4_STATUS_LED*%
X168910000Y-87630000D03*
D16*
X168224556Y-112396762D03*
D15*
%TO.N,+5V*%
X161643986Y-119043516D03*
X143891000Y-123190000D03*
D16*
%TO.N,/PA5_WR_PROT*%
X167513000Y-115316000D03*
D15*
%TO.N,Net-(J3-DAT3{slash}CS)*%
X143764000Y-114935000D03*
X142113000Y-106807000D03*
X164211000Y-97409000D03*
%TO.N,Net-(J3-CMD{slash}DI)*%
X144653000Y-106807000D03*
X164084000Y-99441000D03*
X144653000Y-116713000D03*
%TO.N,+3.3V*%
X164084000Y-100584000D03*
X149733000Y-106807000D03*
D16*
%TO.N,/PD2_00*%
X166116000Y-115697000D03*
D15*
%TO.N,Net-(J3-CLK{slash}SCLK)*%
X148590000Y-120015000D03*
X152146000Y-106807000D03*
D16*
%TO.N,/MISO_D12*%
X153670000Y-122809000D03*
X155448000Y-124595500D03*
D15*
X164084000Y-101854000D03*
D16*
X169805000Y-120764500D03*
D15*
X157061000Y-106845000D03*
%TO.N,Net-(J3-DAT1)*%
X158750000Y-106807000D03*
X164084000Y-103886000D03*
%TO.N,Net-(J3-DAT2)*%
X140843000Y-106807000D03*
X164338000Y-95377000D03*
D16*
%TO.N,/PD3_01*%
X166811500Y-116525500D03*
%TO.N,/PD4_02*%
X166336500Y-117729000D03*
%TO.N,/PD5_03*%
X164211000Y-120904000D03*
%TO.N,/MOSI_D11*%
X169037000Y-121031000D03*
%TO.N,/PD6_RD_DATA*%
X164973000Y-120396000D03*
%TO.N,/PD7_WR_DATA*%
X165862000Y-120904000D03*
%TO.N,/PA3_EJECT_BUTTON*%
X169189400Y-112344200D03*
D15*
X172720000Y-104140000D03*
%TD*%
D17*
%TO.N,/PA3_EJECT_BUTTON*%
X169189400Y-108296295D02*
X172720000Y-104765695D01*
X169189400Y-112344200D02*
X169189400Y-108296295D01*
X172720000Y-104765695D02*
X172720000Y-104140000D01*
D18*
%TO.N,/PD6_RD_DATA*%
X150412200Y-131400000D02*
X148702200Y-129690000D01*
X155625800Y-130505200D02*
X154731000Y-131400000D01*
X157022800Y-125679200D02*
X157022800Y-127587394D01*
X155625800Y-128984394D02*
X155625800Y-130505200D01*
X154731000Y-131400000D02*
X150412200Y-131400000D01*
X157022800Y-127587394D02*
X155625800Y-128984394D01*
X162560000Y-120142000D02*
X157022800Y-125679200D01*
X164719000Y-120142000D02*
X162560000Y-120142000D01*
X164973000Y-120396000D02*
X164719000Y-120142000D01*
%TO.N,/PD7_WR_DATA*%
X160046000Y-131800000D02*
X148042200Y-131800000D01*
X161163000Y-130683000D02*
X160046000Y-131800000D01*
X148042200Y-131800000D02*
X145932200Y-129690000D01*
X161163000Y-128933388D02*
X161163000Y-130683000D01*
X162560000Y-127536388D02*
X161163000Y-128933388D01*
X165529322Y-120904000D02*
X162560000Y-123873322D01*
X162560000Y-123873322D02*
X162560000Y-127536388D01*
X165862000Y-120904000D02*
X165529322Y-120904000D01*
%TO.N,/PD4_02*%
X163239770Y-129690000D02*
X162552200Y-129690000D01*
X165303200Y-127626570D02*
X163239770Y-129690000D01*
X165303200Y-125653800D02*
X165303200Y-127626570D01*
X166462000Y-120655471D02*
X166462000Y-124495000D01*
X166243000Y-117822500D02*
X166243000Y-120436471D01*
X166462000Y-124495000D02*
X165303200Y-125653800D01*
X166336500Y-117729000D02*
X166243000Y-117822500D01*
X166243000Y-120436471D02*
X166462000Y-120655471D01*
%TO.N,/PA5_WR_PROT*%
X144272000Y-127125200D02*
X144547200Y-126850000D01*
X146106500Y-132200000D02*
X144272000Y-130365500D01*
X168155000Y-132200000D02*
X146106500Y-132200000D01*
X171450000Y-128905000D02*
X168155000Y-132200000D01*
X168148000Y-122809000D02*
X171450000Y-126111000D01*
X168148000Y-115951000D02*
X168148000Y-122809000D01*
X144272000Y-130365500D02*
X144272000Y-127125200D01*
X167513000Y-115316000D02*
X168148000Y-115951000D01*
X171450000Y-126111000D02*
X171450000Y-128905000D01*
%TO.N,/PD2_00*%
X169395000Y-129690000D02*
X168092200Y-129690000D01*
X170942000Y-128143000D02*
X169395000Y-129690000D01*
X170942000Y-126168686D02*
X170942000Y-128143000D01*
X167513000Y-122739686D02*
X170942000Y-126168686D01*
X167513000Y-116332000D02*
X167513000Y-122739686D01*
X166878000Y-115697000D02*
X167513000Y-116332000D01*
X166116000Y-115697000D02*
X166878000Y-115697000D01*
D17*
%TO.N,/PA4_STATUS_LED*%
X168275000Y-112346318D02*
X168275000Y-88265000D01*
X168275000Y-88265000D02*
X168910000Y-87630000D01*
X168224556Y-112396762D02*
X168275000Y-112346318D01*
D19*
%TO.N,+5V*%
X155627200Y-126058800D02*
X155627200Y-126850000D01*
X153745200Y-124968000D02*
X155627200Y-126850000D01*
X143891000Y-123190000D02*
X145669000Y-124968000D01*
X145669000Y-124968000D02*
X153745200Y-124968000D01*
X160737484Y-119043516D02*
X160274000Y-119507000D01*
X161643986Y-119043516D02*
X160737484Y-119043516D01*
X160274000Y-121412000D02*
X155627200Y-126058800D01*
X160274000Y-119507000D02*
X160274000Y-121412000D01*
D17*
%TO.N,Net-(J3-DAT3{slash}CS)*%
X143764000Y-114935000D02*
X143764000Y-111379000D01*
X151511000Y-97409000D02*
X164211000Y-97409000D01*
X142113000Y-106807000D02*
X151511000Y-97409000D01*
X143764000Y-111379000D02*
X142113000Y-109728000D01*
X142113000Y-109728000D02*
X142113000Y-106807000D01*
%TO.N,Net-(J3-CMD{slash}DI)*%
X152019000Y-99441000D02*
X164084000Y-99441000D01*
X144653000Y-106807000D02*
X144653000Y-116713000D01*
X144653000Y-106807000D02*
X152019000Y-99441000D01*
%TO.N,+3.3V*%
X155956000Y-100584000D02*
X164084000Y-100584000D01*
X149733000Y-106807000D02*
X155956000Y-100584000D01*
%TO.N,Net-(J3-CLK{slash}SCLK)*%
X148590000Y-113030000D02*
X148590000Y-120015000D01*
X152146000Y-106807000D02*
X152146000Y-109474000D01*
X148590000Y-113030000D02*
X152146000Y-109474000D01*
%TO.N,/MISO_D12*%
X153670000Y-122809000D02*
X153670000Y-122817500D01*
X158496000Y-101854000D02*
X164084000Y-101854000D01*
X153670000Y-122817500D02*
X155448000Y-124595500D01*
X169805000Y-120764500D02*
X169805000Y-120009000D01*
X175006000Y-114808000D02*
X175006000Y-114173000D01*
X169805000Y-120009000D02*
X175006000Y-114808000D01*
X157099000Y-106807000D02*
X157099000Y-103251000D01*
X157099000Y-103251000D02*
X158496000Y-101854000D01*
%TO.N,Net-(J3-DAT1)*%
X158750000Y-104521000D02*
X159385000Y-103886000D01*
X158750000Y-106807000D02*
X158750000Y-104521000D01*
X159385000Y-103886000D02*
X164084000Y-103886000D01*
%TO.N,Net-(J3-DAT2)*%
X152273000Y-95377000D02*
X164338000Y-95377000D01*
X140843000Y-106807000D02*
X152273000Y-95377000D01*
D18*
%TO.N,/PD3_01*%
X168097200Y-125882400D02*
X168097200Y-127558800D01*
X166936000Y-124721200D02*
X168097200Y-125882400D01*
X166936000Y-116650000D02*
X166936000Y-124721200D01*
X166811500Y-116525500D02*
X166936000Y-116650000D01*
X168097200Y-127558800D02*
X165966000Y-129690000D01*
X165966000Y-129690000D02*
X165322200Y-129690000D01*
%TO.N,/PD5_03*%
X159792200Y-125322800D02*
X164211000Y-120904000D01*
X159792200Y-129680000D02*
X159792200Y-125322800D01*
X159782200Y-129690000D02*
X159792200Y-129680000D01*
D17*
%TO.N,/MOSI_D11*%
X169037000Y-120140604D02*
X169037000Y-121031000D01*
X175895000Y-112776000D02*
X173990000Y-112776000D01*
X173609000Y-113157000D02*
X173609000Y-115568604D01*
X173609000Y-115568604D02*
X169037000Y-120140604D01*
X177546000Y-116713000D02*
X176276000Y-115443000D01*
X176276000Y-115443000D02*
X176276000Y-113157000D01*
X173990000Y-112776000D02*
X173609000Y-113157000D01*
X176276000Y-113157000D02*
X175895000Y-112776000D01*
%TD*%
%TA.AperFunction,Conductor*%
%TO.N,GND*%
G36*
X165921783Y-127024353D02*
G01*
X165911700Y-126978000D01*
X165911700Y-126934863D01*
X165921783Y-127024353D01*
G37*
%TD.AperFunction*%
%TA.AperFunction,Conductor*%
G36*
X165911700Y-126765136D02*
G01*
X165911700Y-126722000D01*
X165919586Y-126695139D01*
X165911700Y-126765136D01*
G37*
%TD.AperFunction*%
%TA.AperFunction,Conductor*%
G36*
X165679432Y-121697044D02*
G01*
X165680221Y-121697049D01*
X165680942Y-121697213D01*
X165680953Y-121697217D01*
X165741610Y-121704051D01*
X165807060Y-121731553D01*
X165847253Y-121790077D01*
X165853500Y-121829258D01*
X165853500Y-124190759D01*
X165833498Y-124258880D01*
X165816595Y-124279855D01*
X164904048Y-125192401D01*
X164897847Y-125197839D01*
X164869213Y-125219812D01*
X164843660Y-125253111D01*
X164843639Y-125253139D01*
X164793298Y-125318744D01*
X164735960Y-125360611D01*
X164665089Y-125364833D01*
X164630336Y-125351159D01*
X164607278Y-125337846D01*
X164372076Y-125248645D01*
X164191200Y-125211718D01*
X164191200Y-126091316D01*
X164116343Y-126065123D01*
X163982126Y-126050000D01*
X163892274Y-126050000D01*
X163758057Y-126065123D01*
X163683200Y-126091316D01*
X163683200Y-125211397D01*
X163683199Y-125211397D01*
X163624544Y-125218520D01*
X163624542Y-125218520D01*
X163382936Y-125288501D01*
X163348514Y-125304835D01*
X163278395Y-125315965D01*
X163213390Y-125287420D01*
X163174136Y-125228262D01*
X163168500Y-125190999D01*
X163168500Y-124177560D01*
X163188502Y-124109439D01*
X163205400Y-124088470D01*
X165563079Y-121730790D01*
X165625389Y-121696767D01*
X165673854Y-121697016D01*
X165673921Y-121696424D01*
X165679432Y-121697044D01*
G37*
%TD.AperFunction*%
%TA.AperFunction,Conductor*%
G36*
X176359225Y-117388669D02*
G01*
X176381480Y-117414353D01*
X176414607Y-117465058D01*
X176470275Y-117550265D01*
X176470279Y-117550270D01*
X176622762Y-117715908D01*
X176639583Y-117729000D01*
X176800424Y-117854189D01*
X176834205Y-117872470D01*
X176884596Y-117922482D01*
X176899949Y-117991799D01*
X176875389Y-118058412D01*
X176834208Y-118094097D01*
X176800700Y-118112230D01*
X176780310Y-118128099D01*
X176780310Y-118128101D01*
X177418411Y-118766202D01*
X177403685Y-118768320D01*
X177272900Y-118828048D01*
X177164239Y-118922202D01*
X177086507Y-119043156D01*
X177061638Y-119127849D01*
X176422921Y-118489132D01*
X176422920Y-118489132D01*
X176381780Y-118552102D01*
X176327776Y-118598190D01*
X176257428Y-118607765D01*
X176193071Y-118577787D01*
X176170822Y-118552111D01*
X176081722Y-118415732D01*
X175929240Y-118250094D01*
X175929239Y-118250093D01*
X175929237Y-118250091D01*
X175781389Y-118135016D01*
X175751576Y-118111811D01*
X175718319Y-118093813D01*
X175667929Y-118043802D01*
X175652576Y-117974485D01*
X175677136Y-117907872D01*
X175718320Y-117872186D01*
X175751576Y-117854189D01*
X175929240Y-117715906D01*
X176081722Y-117550268D01*
X176170518Y-117414354D01*
X176224520Y-117368268D01*
X176294868Y-117358692D01*
X176359225Y-117388669D01*
G37*
%TD.AperFunction*%
%TA.AperFunction,Conductor*%
G36*
X179355621Y-82920502D02*
G01*
X179402114Y-82974158D01*
X179413500Y-83026500D01*
X179413500Y-134320500D01*
X179393498Y-134388621D01*
X179339842Y-134435114D01*
X179287500Y-134446500D01*
X134712500Y-134446500D01*
X134644379Y-134426498D01*
X134597886Y-134372842D01*
X134586500Y-134320500D01*
X134586500Y-128270000D01*
X136011751Y-128270000D01*
X136031517Y-128521147D01*
X136090326Y-128766109D01*
X136147856Y-128904998D01*
X136186734Y-128998859D01*
X136317271Y-129211876D01*
X136318365Y-129213660D01*
X136318366Y-129213662D01*
X136481975Y-129405224D01*
X136673537Y-129568833D01*
X136673541Y-129568836D01*
X136888341Y-129700466D01*
X137121089Y-129796873D01*
X137366052Y-129855683D01*
X137518355Y-129867669D01*
X137554315Y-129870500D01*
X137554318Y-129870500D01*
X137680085Y-129870500D01*
X137713892Y-129867839D01*
X137868348Y-129855683D01*
X138113311Y-129796873D01*
X138346059Y-129700466D01*
X138560859Y-129568836D01*
X138752424Y-129405224D01*
X138916036Y-129213659D01*
X139047666Y-128998859D01*
X139144073Y-128766111D01*
X139202883Y-128521148D01*
X139222649Y-128270000D01*
X139202883Y-128018852D01*
X139144073Y-127773889D01*
X139047666Y-127541141D01*
X138916036Y-127326341D01*
X138808822Y-127200809D01*
X138752424Y-127134775D01*
X138560862Y-126971166D01*
X138560860Y-126971165D01*
X138560859Y-126971164D01*
X138346059Y-126839534D01*
X138113311Y-126743127D01*
X138113309Y-126743126D01*
X137945736Y-126702896D01*
X137868348Y-126684317D01*
X137821281Y-126680612D01*
X137680085Y-126669500D01*
X137680082Y-126669500D01*
X137554318Y-126669500D01*
X137554315Y-126669500D01*
X137366052Y-126684317D01*
X137121090Y-126743126D01*
X136888342Y-126839533D01*
X136673539Y-126971165D01*
X136673537Y-126971166D01*
X136481975Y-127134775D01*
X136318366Y-127326337D01*
X136318365Y-127326339D01*
X136186733Y-127541142D01*
X136090326Y-127773890D01*
X136031517Y-128018852D01*
X136011751Y-128270000D01*
X134586500Y-128270000D01*
X134586500Y-123190000D01*
X142977496Y-123190000D01*
X142997457Y-123379927D01*
X143018637Y-123445111D01*
X143056473Y-123561556D01*
X143056476Y-123561561D01*
X143151958Y-123726941D01*
X143151965Y-123726951D01*
X143279744Y-123868864D01*
X143279747Y-123868866D01*
X143434248Y-123981118D01*
X143608712Y-124058794D01*
X143671769Y-124072197D01*
X143734243Y-124105925D01*
X143734668Y-124106349D01*
X144601974Y-124973655D01*
X144636000Y-125035967D01*
X144630935Y-125106782D01*
X144588388Y-125163618D01*
X144521868Y-125188429D01*
X144507812Y-125188647D01*
X144486511Y-125187789D01*
X144484242Y-125187698D01*
X144484235Y-125187698D01*
X144234444Y-125218029D01*
X144234442Y-125218029D01*
X143992760Y-125288033D01*
X143992755Y-125288034D01*
X143765417Y-125395907D01*
X143558335Y-125538844D01*
X143558318Y-125538858D01*
X143376856Y-125713155D01*
X143376854Y-125713157D01*
X143376851Y-125713161D01*
X143225686Y-125914325D01*
X143143392Y-126071125D01*
X143108747Y-126137135D01*
X143029064Y-126375816D01*
X143029062Y-126375825D01*
X142988701Y-126624175D01*
X142988700Y-126624189D01*
X142988700Y-127012807D01*
X143003877Y-127200809D01*
X143064097Y-127445137D01*
X143162727Y-127676626D01*
X143162730Y-127676631D01*
X143297213Y-127889301D01*
X143464077Y-128077651D01*
X143464081Y-128077654D01*
X143617188Y-128202662D01*
X143657305Y-128261238D01*
X143663500Y-128300262D01*
X143663500Y-130321488D01*
X143662960Y-130329719D01*
X143658250Y-130365498D01*
X143658250Y-130365502D01*
X143663255Y-130403520D01*
X143663257Y-130403541D01*
X143676608Y-130504955D01*
X143679162Y-130524351D01*
X143740475Y-130672374D01*
X143740480Y-130672382D01*
X143813525Y-130767574D01*
X143838014Y-130799488D01*
X143866651Y-130821462D01*
X143872844Y-130826893D01*
X145645105Y-132599154D01*
X145650537Y-132605348D01*
X145672512Y-132633986D01*
X145672513Y-132633987D01*
X145702336Y-132656871D01*
X145702373Y-132656901D01*
X145799617Y-132731519D01*
X145799624Y-132731524D01*
X145947649Y-132792838D01*
X145967043Y-132795391D01*
X146066615Y-132808500D01*
X146066620Y-132808500D01*
X146106500Y-132813750D01*
X146142281Y-132809040D01*
X146150512Y-132808500D01*
X168110988Y-132808500D01*
X168119219Y-132809040D01*
X168131549Y-132810662D01*
X168155000Y-132813750D01*
X168194880Y-132808500D01*
X168194885Y-132808500D01*
X168272791Y-132798243D01*
X168294457Y-132795391D01*
X168298335Y-132794880D01*
X168313851Y-132792838D01*
X168461876Y-132731524D01*
X168557072Y-132658477D01*
X168557072Y-132658476D01*
X168565291Y-132652170D01*
X168565300Y-132652162D01*
X168588987Y-132633987D01*
X168610965Y-132605344D01*
X168616384Y-132599163D01*
X171849160Y-129366387D01*
X171855341Y-129360966D01*
X171883987Y-129338987D01*
X171903235Y-129313901D01*
X171903241Y-129313895D01*
X171908476Y-129307072D01*
X171908478Y-129307071D01*
X171981524Y-129211876D01*
X172042838Y-129063851D01*
X172063751Y-128905000D01*
X172059040Y-128869211D01*
X172058500Y-128860980D01*
X172058500Y-128270000D01*
X174801751Y-128270000D01*
X174821517Y-128521147D01*
X174880326Y-128766109D01*
X174937856Y-128904998D01*
X174976734Y-128998859D01*
X175107271Y-129211876D01*
X175108365Y-129213660D01*
X175108366Y-129213662D01*
X175271975Y-129405224D01*
X175463537Y-129568833D01*
X175463541Y-129568836D01*
X175678341Y-129700466D01*
X175911089Y-129796873D01*
X176156052Y-129855683D01*
X176308355Y-129867669D01*
X176344315Y-129870500D01*
X176344318Y-129870500D01*
X176470085Y-129870500D01*
X176503892Y-129867839D01*
X176658348Y-129855683D01*
X176903311Y-129796873D01*
X177136059Y-129700466D01*
X177350859Y-129568836D01*
X177542424Y-129405224D01*
X177706036Y-129213659D01*
X177837666Y-128998859D01*
X177934073Y-128766111D01*
X177992883Y-128521148D01*
X178012649Y-128270000D01*
X177992883Y-128018852D01*
X177934073Y-127773889D01*
X177837666Y-127541141D01*
X177706036Y-127326341D01*
X177598822Y-127200809D01*
X177542424Y-127134775D01*
X177350862Y-126971166D01*
X177350860Y-126971165D01*
X177350859Y-126971164D01*
X177136059Y-126839534D01*
X176903311Y-126743127D01*
X176903309Y-126743126D01*
X176735736Y-126702896D01*
X176658348Y-126684317D01*
X176611281Y-126680612D01*
X176470085Y-126669500D01*
X176470082Y-126669500D01*
X176344318Y-126669500D01*
X176344315Y-126669500D01*
X176156052Y-126684317D01*
X175911090Y-126743126D01*
X175678342Y-126839533D01*
X175463539Y-126971165D01*
X175463537Y-126971166D01*
X175271975Y-127134775D01*
X175108366Y-127326337D01*
X175108365Y-127326339D01*
X174976733Y-127541142D01*
X174880326Y-127773890D01*
X174821517Y-128018852D01*
X174801751Y-128270000D01*
X172058500Y-128270000D01*
X172058500Y-126155010D01*
X172059040Y-126146778D01*
X172061951Y-126124664D01*
X172063750Y-126111000D01*
X172058500Y-126071122D01*
X172058500Y-126071115D01*
X172042838Y-125952150D01*
X171995576Y-125838050D01*
X171981524Y-125804124D01*
X171981523Y-125804123D01*
X171981523Y-125804122D01*
X171935354Y-125743955D01*
X171908477Y-125708928D01*
X171908474Y-125708925D01*
X171903385Y-125702293D01*
X171883988Y-125677013D01*
X171855346Y-125655035D01*
X171849153Y-125649604D01*
X168793405Y-122593856D01*
X168759379Y-122531544D01*
X168756500Y-122504761D01*
X168756500Y-121954005D01*
X168776502Y-121885884D01*
X168830158Y-121839391D01*
X168896605Y-121828797D01*
X169037000Y-121844616D01*
X169218047Y-121824217D01*
X169390015Y-121764043D01*
X169544281Y-121667111D01*
X169607760Y-121603631D01*
X169670069Y-121569607D01*
X169710955Y-121567519D01*
X169805000Y-121578116D01*
X169986047Y-121557717D01*
X170158015Y-121497543D01*
X170312281Y-121400611D01*
X170441111Y-121271781D01*
X170538043Y-121117515D01*
X170598217Y-120945547D01*
X170618616Y-120764500D01*
X170598217Y-120583453D01*
X170538043Y-120411485D01*
X170499036Y-120349405D01*
X170479730Y-120281084D01*
X170500425Y-120213171D01*
X170516623Y-120193279D01*
X173536782Y-117173121D01*
X173599092Y-117139097D01*
X173669908Y-117144162D01*
X173726743Y-117186709D01*
X173741262Y-117211603D01*
X173758080Y-117249944D01*
X173807141Y-117361793D01*
X173930275Y-117550265D01*
X173930279Y-117550270D01*
X174082762Y-117715908D01*
X174099583Y-117729000D01*
X174260424Y-117854189D01*
X174293680Y-117872186D01*
X174344071Y-117922200D01*
X174359423Y-117991516D01*
X174334862Y-118058129D01*
X174293680Y-118093813D01*
X174260426Y-118111810D01*
X174260424Y-118111811D01*
X174082762Y-118250091D01*
X173930279Y-118415729D01*
X173930275Y-118415734D01*
X173807141Y-118604206D01*
X173716703Y-118810386D01*
X173716702Y-118810387D01*
X173661437Y-119028624D01*
X173661436Y-119028630D01*
X173661436Y-119028632D01*
X173642844Y-119253000D01*
X173660232Y-119462844D01*
X173661437Y-119477375D01*
X173716702Y-119695612D01*
X173716703Y-119695613D01*
X173716704Y-119695616D01*
X173782295Y-119845150D01*
X173807141Y-119901793D01*
X173930275Y-120090265D01*
X173930279Y-120090270D01*
X174082762Y-120255908D01*
X174115108Y-120281084D01*
X174260424Y-120394189D01*
X174458426Y-120501342D01*
X174458427Y-120501342D01*
X174458428Y-120501343D01*
X174468379Y-120504759D01*
X174671365Y-120574444D01*
X174893431Y-120611500D01*
X174893435Y-120611500D01*
X175118565Y-120611500D01*
X175118569Y-120611500D01*
X175340635Y-120574444D01*
X175553574Y-120501342D01*
X175751576Y-120394189D01*
X175929240Y-120255906D01*
X176081722Y-120090268D01*
X176170816Y-119953898D01*
X176224819Y-119907810D01*
X176295167Y-119898235D01*
X176359524Y-119928212D01*
X176381782Y-119953898D01*
X176422922Y-120016866D01*
X177061638Y-119378149D01*
X177086507Y-119462844D01*
X177164239Y-119583798D01*
X177272900Y-119677952D01*
X177403685Y-119737680D01*
X177418412Y-119739797D01*
X176780310Y-120377898D01*
X176800694Y-120393763D01*
X176800696Y-120393765D01*
X176998632Y-120500883D01*
X177211483Y-120573955D01*
X177211490Y-120573957D01*
X177433477Y-120611000D01*
X177658523Y-120611000D01*
X177880509Y-120573957D01*
X177880516Y-120573955D01*
X178093369Y-120500883D01*
X178093371Y-120500882D01*
X178291298Y-120393768D01*
X178291302Y-120393766D01*
X178311689Y-120377898D01*
X177673588Y-119739797D01*
X177688315Y-119737680D01*
X177819100Y-119677952D01*
X177927761Y-119583798D01*
X178005493Y-119462844D01*
X178030360Y-119378151D01*
X178669076Y-120016867D01*
X178669077Y-120016866D01*
X178744419Y-119901551D01*
X178834820Y-119695456D01*
X178834823Y-119695449D01*
X178890067Y-119477292D01*
X178908653Y-119253000D01*
X178890067Y-119028707D01*
X178834823Y-118810550D01*
X178834820Y-118810543D01*
X178744422Y-118604456D01*
X178744417Y-118604448D01*
X178669076Y-118489132D01*
X178030360Y-119127848D01*
X178005493Y-119043156D01*
X177927761Y-118922202D01*
X177819100Y-118828048D01*
X177688315Y-118768320D01*
X177673587Y-118766202D01*
X178311689Y-118128100D01*
X178311688Y-118128099D01*
X178291306Y-118112235D01*
X178291294Y-118112227D01*
X178257792Y-118094097D01*
X178207402Y-118044084D01*
X178192050Y-117974767D01*
X178216611Y-117908154D01*
X178257790Y-117872472D01*
X178291576Y-117854189D01*
X178469240Y-117715906D01*
X178621722Y-117550268D01*
X178744860Y-117361791D01*
X178835296Y-117155616D01*
X178890564Y-116937368D01*
X178909156Y-116713000D01*
X178890564Y-116488632D01*
X178853291Y-116341444D01*
X178835297Y-116270387D01*
X178835296Y-116270386D01*
X178835296Y-116270384D01*
X178744860Y-116064209D01*
X178709753Y-116010474D01*
X178621724Y-115875734D01*
X178621720Y-115875729D01*
X178469237Y-115710091D01*
X178384474Y-115644117D01*
X178291576Y-115571811D01*
X178258319Y-115553813D01*
X178207929Y-115503802D01*
X178192576Y-115434485D01*
X178217136Y-115367872D01*
X178258320Y-115332186D01*
X178291576Y-115314189D01*
X178469240Y-115175906D01*
X178621722Y-115010268D01*
X178744860Y-114821791D01*
X178835296Y-114615616D01*
X178890564Y-114397368D01*
X178909156Y-114173000D01*
X178890564Y-113948632D01*
X178835296Y-113730384D01*
X178744860Y-113524209D01*
X178738140Y-113513924D01*
X178621724Y-113335734D01*
X178621720Y-113335729D01*
X178505570Y-113209559D01*
X178469240Y-113170094D01*
X178469239Y-113170093D01*
X178469237Y-113170091D01*
X178349945Y-113077242D01*
X178291576Y-113031811D01*
X178093574Y-112924658D01*
X178093572Y-112924657D01*
X178093571Y-112924656D01*
X177880639Y-112851557D01*
X177880630Y-112851555D01*
X177836476Y-112844187D01*
X177658569Y-112814500D01*
X177433431Y-112814500D01*
X177285211Y-112839233D01*
X177211369Y-112851555D01*
X177211360Y-112851557D01*
X176995057Y-112925814D01*
X176924132Y-112929014D01*
X176862737Y-112893362D01*
X176836990Y-112853016D01*
X176835552Y-112849383D01*
X176835551Y-112849381D01*
X176835550Y-112849379D01*
X176807818Y-112811210D01*
X176804562Y-112806253D01*
X176780542Y-112765637D01*
X176780540Y-112765635D01*
X176780540Y-112765634D01*
X176766218Y-112751312D01*
X176753377Y-112736279D01*
X176741471Y-112719892D01*
X176723419Y-112704958D01*
X176705108Y-112689810D01*
X176700736Y-112685831D01*
X176402244Y-112387339D01*
X176392279Y-112374901D01*
X176392052Y-112375090D01*
X176387001Y-112368984D01*
X176387000Y-112368982D01*
X176335921Y-112321016D01*
X176325431Y-112310526D01*
X176314777Y-112299871D01*
X176314772Y-112299866D01*
X176309225Y-112295563D01*
X176304717Y-112291712D01*
X176270325Y-112259417D01*
X176270319Y-112259413D01*
X176252563Y-112249651D01*
X176236047Y-112238802D01*
X176220041Y-112226386D01*
X176189289Y-112213078D01*
X176176740Y-112207648D01*
X176171408Y-112205036D01*
X176130061Y-112182305D01*
X176110436Y-112177266D01*
X176091736Y-112170864D01*
X176073145Y-112162819D01*
X176073143Y-112162818D01*
X176073142Y-112162818D01*
X176026542Y-112155437D01*
X176020729Y-112154233D01*
X175975030Y-112142500D01*
X175954776Y-112142500D01*
X175935066Y-112140949D01*
X175915057Y-112137780D01*
X175915056Y-112137780D01*
X175868083Y-112142220D01*
X175862150Y-112142500D01*
X174073849Y-112142500D01*
X174058010Y-112140751D01*
X174057983Y-112141045D01*
X174050091Y-112140299D01*
X173980060Y-112142500D01*
X173950144Y-112142500D01*
X173943172Y-112143379D01*
X173937265Y-112143844D01*
X173890110Y-112145326D01*
X173890105Y-112145327D01*
X173870660Y-112150977D01*
X173851302Y-112154986D01*
X173831207Y-112157524D01*
X173831205Y-112157525D01*
X173787324Y-112174897D01*
X173781709Y-112176819D01*
X173736410Y-112189980D01*
X173736404Y-112189982D01*
X173718966Y-112200295D01*
X173701220Y-112208989D01*
X173682381Y-112216448D01*
X173682380Y-112216449D01*
X173644213Y-112244178D01*
X173639252Y-112247437D01*
X173598637Y-112271458D01*
X173584307Y-112285787D01*
X173569281Y-112298620D01*
X173552895Y-112310526D01*
X173552894Y-112310526D01*
X173522818Y-112346880D01*
X173518823Y-112351271D01*
X173220336Y-112649757D01*
X173207901Y-112659721D01*
X173208089Y-112659948D01*
X173201980Y-112665001D01*
X173154016Y-112716078D01*
X173132866Y-112737227D01*
X173128560Y-112742777D01*
X173124714Y-112747279D01*
X173092417Y-112781674D01*
X173092411Y-112781683D01*
X173082651Y-112799435D01*
X173071803Y-112815950D01*
X173059386Y-112831958D01*
X173040645Y-112875264D01*
X173038034Y-112880594D01*
X173015305Y-112921939D01*
X173015303Y-112921944D01*
X173010267Y-112941559D01*
X173003864Y-112960262D01*
X172995819Y-112978852D01*
X172988437Y-113025456D01*
X172987233Y-113031268D01*
X172975500Y-113076968D01*
X172975500Y-113097223D01*
X172973949Y-113116933D01*
X172970780Y-113136942D01*
X172970780Y-113136943D01*
X172975220Y-113183917D01*
X172975500Y-113189850D01*
X172975500Y-115254009D01*
X172955498Y-115322130D01*
X172938595Y-115343104D01*
X168971595Y-119310104D01*
X168909283Y-119344130D01*
X168838468Y-119339065D01*
X168781632Y-119296518D01*
X168756821Y-119229998D01*
X168756500Y-119221009D01*
X168756500Y-115995018D01*
X168757040Y-115986786D01*
X168761751Y-115951000D01*
X168761751Y-115950999D01*
X168747380Y-115841839D01*
X168740838Y-115792149D01*
X168679524Y-115644124D01*
X168679519Y-115644117D01*
X168604901Y-115546873D01*
X168604871Y-115546836D01*
X168581986Y-115517012D01*
X168553346Y-115495035D01*
X168547153Y-115489604D01*
X168351832Y-115294283D01*
X168317806Y-115231971D01*
X168315720Y-115219306D01*
X168306217Y-115134953D01*
X168246043Y-114962985D01*
X168246041Y-114962982D01*
X168246041Y-114962981D01*
X168149112Y-114808720D01*
X168149111Y-114808718D01*
X168020281Y-114679888D01*
X168020279Y-114679887D01*
X167866018Y-114582958D01*
X167866015Y-114582957D01*
X167694050Y-114522784D01*
X167694049Y-114522783D01*
X167694047Y-114522783D01*
X167513000Y-114502384D01*
X167331953Y-114522783D01*
X167331950Y-114522783D01*
X167331949Y-114522784D01*
X167159984Y-114582957D01*
X167159981Y-114582958D01*
X167005720Y-114679887D01*
X167005718Y-114679888D01*
X166876888Y-114808718D01*
X166876887Y-114808720D01*
X166779958Y-114962981D01*
X166779956Y-114962985D01*
X166775817Y-114974815D01*
X166734438Y-115032506D01*
X166668437Y-115058667D01*
X166598769Y-115044992D01*
X166589853Y-115039884D01*
X166469017Y-114963958D01*
X166469015Y-114963957D01*
X166297050Y-114903784D01*
X166297049Y-114903783D01*
X166297047Y-114903783D01*
X166116000Y-114883384D01*
X165934953Y-114903783D01*
X165934950Y-114903783D01*
X165934949Y-114903784D01*
X165762984Y-114963957D01*
X165762981Y-114963958D01*
X165608720Y-115060887D01*
X165608718Y-115060888D01*
X165479888Y-115189718D01*
X165479887Y-115189720D01*
X165382958Y-115343981D01*
X165382957Y-115343984D01*
X165327035Y-115503802D01*
X165322783Y-115515953D01*
X165302384Y-115697000D01*
X165322783Y-115878047D01*
X165322783Y-115878049D01*
X165322784Y-115878050D01*
X165382957Y-116050015D01*
X165382958Y-116050018D01*
X165479887Y-116204279D01*
X165479888Y-116204281D01*
X165608718Y-116333111D01*
X165608720Y-116333112D01*
X165762981Y-116430041D01*
X165762982Y-116430041D01*
X165762985Y-116430043D01*
X165921599Y-116485544D01*
X165979291Y-116526922D01*
X166005192Y-116590364D01*
X166018283Y-116706547D01*
X166063094Y-116834610D01*
X166066712Y-116905514D01*
X166031423Y-116967119D01*
X165989768Y-116992706D01*
X165989856Y-116992889D01*
X165988072Y-116993747D01*
X165985793Y-116995148D01*
X165983491Y-116995953D01*
X165983481Y-116995958D01*
X165829220Y-117092887D01*
X165829218Y-117092888D01*
X165700388Y-117221718D01*
X165700387Y-117221720D01*
X165603458Y-117375981D01*
X165603457Y-117375984D01*
X165558622Y-117504117D01*
X165543283Y-117547953D01*
X165522884Y-117729000D01*
X165543283Y-117910047D01*
X165543283Y-117910049D01*
X165543284Y-117910050D01*
X165603457Y-118082015D01*
X165603456Y-118082015D01*
X165615186Y-118100681D01*
X165634500Y-118167719D01*
X165634500Y-119628810D01*
X165614498Y-119696931D01*
X165560842Y-119743424D01*
X165490568Y-119753528D01*
X165441464Y-119735498D01*
X165326013Y-119662956D01*
X165228428Y-119628810D01*
X165154047Y-119602783D01*
X165054633Y-119591581D01*
X164970148Y-119582062D01*
X164936039Y-119573263D01*
X164877853Y-119549162D01*
X164864921Y-119547459D01*
X164858456Y-119546608D01*
X164823202Y-119541967D01*
X164757041Y-119533257D01*
X164757020Y-119533255D01*
X164719002Y-119528250D01*
X164718999Y-119528250D01*
X164683219Y-119532960D01*
X164674988Y-119533500D01*
X162613458Y-119533500D01*
X162545337Y-119513498D01*
X162498844Y-119459842D01*
X162488740Y-119389568D01*
X162493625Y-119368564D01*
X162537528Y-119233444D01*
X162543517Y-119176458D01*
X162557490Y-119043516D01*
X162537528Y-118853588D01*
X162478513Y-118671960D01*
X162383026Y-118506572D01*
X162383024Y-118506570D01*
X162383020Y-118506564D01*
X162255241Y-118364651D01*
X162100738Y-118252398D01*
X161926274Y-118174722D01*
X161739473Y-118135016D01*
X161548499Y-118135016D01*
X161361697Y-118174722D01*
X161187231Y-118252399D01*
X161175462Y-118260951D01*
X161108595Y-118284810D01*
X161101399Y-118285016D01*
X160801925Y-118285016D01*
X160783665Y-118283686D01*
X160759695Y-118280175D01*
X160707099Y-118284776D01*
X160701606Y-118285016D01*
X160693302Y-118285016D01*
X160671360Y-118287580D01*
X160660389Y-118288863D01*
X160651216Y-118289665D01*
X160583061Y-118295628D01*
X160575870Y-118297113D01*
X160575856Y-118297048D01*
X160568498Y-118298679D01*
X160568514Y-118298744D01*
X160561373Y-118300436D01*
X160488428Y-118326985D01*
X160414744Y-118351401D01*
X160408097Y-118354502D01*
X160408069Y-118354442D01*
X160401278Y-118357730D01*
X160401308Y-118357788D01*
X160394750Y-118361081D01*
X160329870Y-118403753D01*
X160263831Y-118444488D01*
X160258080Y-118449036D01*
X160258038Y-118448983D01*
X160252188Y-118453749D01*
X160252230Y-118453799D01*
X160246608Y-118458516D01*
X160193305Y-118515014D01*
X159783222Y-118925095D01*
X159769373Y-118937063D01*
X159749948Y-118951525D01*
X159749944Y-118951529D01*
X159716007Y-118991971D01*
X159712300Y-118996017D01*
X159706421Y-119001897D01*
X159706412Y-119001907D01*
X159685863Y-119027896D01*
X159635965Y-119087364D01*
X159631935Y-119093491D01*
X159631880Y-119093455D01*
X159627825Y-119099820D01*
X159627882Y-119099855D01*
X159624028Y-119106101D01*
X159591220Y-119176458D01*
X159556391Y-119245812D01*
X159553882Y-119252707D01*
X159553820Y-119252684D01*
X159551343Y-119259810D01*
X159551404Y-119259831D01*
X159549097Y-119266790D01*
X159533392Y-119342849D01*
X159529128Y-119360841D01*
X159516276Y-119415072D01*
X159515500Y-119418345D01*
X159514648Y-119425634D01*
X159514581Y-119425626D01*
X159513814Y-119433126D01*
X159513881Y-119433132D01*
X159513241Y-119440442D01*
X159515500Y-119518079D01*
X159515500Y-121045628D01*
X159495498Y-121113749D01*
X159478595Y-121134723D01*
X156366001Y-124247316D01*
X156303689Y-124281342D01*
X156232873Y-124276277D01*
X156176038Y-124233730D01*
X156170219Y-124225257D01*
X156084112Y-124088220D01*
X156084111Y-124088218D01*
X155955281Y-123959388D01*
X155955279Y-123959387D01*
X155801018Y-123862458D01*
X155801015Y-123862457D01*
X155629052Y-123802284D01*
X155629048Y-123802283D01*
X155629047Y-123802283D01*
X155629041Y-123802282D01*
X155629039Y-123802282D01*
X155584543Y-123797267D01*
X155519091Y-123769762D01*
X155509560Y-123761155D01*
X154505422Y-122757017D01*
X154471396Y-122694705D01*
X154469309Y-122682027D01*
X154466045Y-122653058D01*
X154463217Y-122627953D01*
X154403043Y-122455985D01*
X154403041Y-122455982D01*
X154403041Y-122455981D01*
X154306112Y-122301720D01*
X154306111Y-122301718D01*
X154177281Y-122172888D01*
X154177279Y-122172887D01*
X154023018Y-122075958D01*
X154023015Y-122075957D01*
X153851050Y-122015784D01*
X153851049Y-122015783D01*
X153851047Y-122015783D01*
X153670000Y-121995384D01*
X153488953Y-122015783D01*
X153488950Y-122015783D01*
X153488949Y-122015784D01*
X153316984Y-122075957D01*
X153316981Y-122075958D01*
X153162720Y-122172887D01*
X153162718Y-122172888D01*
X153033888Y-122301718D01*
X153033887Y-122301720D01*
X152936958Y-122455981D01*
X152936957Y-122455984D01*
X152901628Y-122556951D01*
X152876783Y-122627953D01*
X152856384Y-122809000D01*
X152876783Y-122990047D01*
X152876783Y-122990049D01*
X152876784Y-122990050D01*
X152936957Y-123162015D01*
X152936958Y-123162018D01*
X153033887Y-123316279D01*
X153033888Y-123316281D01*
X153162718Y-123445111D01*
X153162720Y-123445112D01*
X153316981Y-123542041D01*
X153316982Y-123542041D01*
X153316985Y-123542043D01*
X153488953Y-123602217D01*
X153523126Y-123606067D01*
X153523871Y-123606151D01*
X153589324Y-123633653D01*
X153598860Y-123642264D01*
X153955139Y-123998543D01*
X153989165Y-124060855D01*
X153984100Y-124131670D01*
X153941553Y-124188506D01*
X153875033Y-124213317D01*
X153836989Y-124210242D01*
X153833859Y-124209500D01*
X153826567Y-124208648D01*
X153826574Y-124208580D01*
X153819077Y-124207814D01*
X153819072Y-124207881D01*
X153811759Y-124207241D01*
X153811758Y-124207241D01*
X153734120Y-124209500D01*
X146035371Y-124209500D01*
X145967250Y-124189498D01*
X145946276Y-124172595D01*
X144811125Y-123037444D01*
X144780387Y-122987285D01*
X144725528Y-122818447D01*
X144725527Y-122818445D01*
X144725527Y-122818444D01*
X144630040Y-122653056D01*
X144630038Y-122653054D01*
X144630034Y-122653048D01*
X144502255Y-122511135D01*
X144347752Y-122398882D01*
X144173288Y-122321206D01*
X143986487Y-122281500D01*
X143795513Y-122281500D01*
X143608711Y-122321206D01*
X143434247Y-122398882D01*
X143279744Y-122511135D01*
X143151965Y-122653048D01*
X143151958Y-122653058D01*
X143056476Y-122818438D01*
X143056473Y-122818445D01*
X142997457Y-123000072D01*
X142977496Y-123190000D01*
X134586500Y-123190000D01*
X134586500Y-105346000D01*
X137892526Y-105346000D01*
X137912391Y-105598402D01*
X137971494Y-105844589D01*
X138042204Y-106015297D01*
X138068384Y-106078502D01*
X138200672Y-106294376D01*
X138365102Y-106486898D01*
X138557624Y-106651328D01*
X138773498Y-106783616D01*
X139007409Y-106880505D01*
X139253597Y-106939609D01*
X139506000Y-106959474D01*
X139758403Y-106939609D01*
X139805100Y-106928398D01*
X139876008Y-106931944D01*
X139933742Y-106973263D01*
X139954348Y-107011979D01*
X139961805Y-107034928D01*
X140008473Y-107178556D01*
X140008476Y-107178561D01*
X140103958Y-107343941D01*
X140103965Y-107343951D01*
X140231744Y-107485864D01*
X140264309Y-107509524D01*
X140386248Y-107598118D01*
X140560712Y-107675794D01*
X140747513Y-107715500D01*
X140938487Y-107715500D01*
X141125288Y-107675794D01*
X141299752Y-107598118D01*
X141299756Y-107598114D01*
X141302251Y-107597004D01*
X141372618Y-107587570D01*
X141436915Y-107617676D01*
X141474728Y-107677765D01*
X141479500Y-107712111D01*
X141479500Y-109644146D01*
X141477751Y-109659988D01*
X141478044Y-109660016D01*
X141477298Y-109667907D01*
X141479500Y-109737957D01*
X141479500Y-109767851D01*
X141479501Y-109767872D01*
X141480378Y-109774820D01*
X141480844Y-109780732D01*
X141482326Y-109827888D01*
X141482327Y-109827893D01*
X141487977Y-109847339D01*
X141491986Y-109866697D01*
X141494525Y-109886793D01*
X141494526Y-109886799D01*
X141511893Y-109930662D01*
X141513816Y-109936279D01*
X141526982Y-109981593D01*
X141537294Y-109999031D01*
X141545988Y-110016779D01*
X141553444Y-110035609D01*
X141553450Y-110035620D01*
X141581177Y-110073783D01*
X141584437Y-110078746D01*
X141608460Y-110119365D01*
X141622779Y-110133684D01*
X141635617Y-110148714D01*
X141645156Y-110161843D01*
X141647528Y-110165107D01*
X141675794Y-110188491D01*
X141683886Y-110195185D01*
X141688267Y-110199171D01*
X143093595Y-111604499D01*
X143127621Y-111666811D01*
X143130500Y-111693594D01*
X143130500Y-114232474D01*
X143110498Y-114300595D01*
X143098137Y-114316784D01*
X143024957Y-114398059D01*
X142929476Y-114563438D01*
X142929473Y-114563444D01*
X142914999Y-114607986D01*
X142870457Y-114745072D01*
X142850496Y-114935000D01*
X142870457Y-115124927D01*
X142891510Y-115189718D01*
X142929473Y-115306556D01*
X142929476Y-115306561D01*
X143024958Y-115471941D01*
X143024965Y-115471951D01*
X143152743Y-115613863D01*
X143152746Y-115613865D01*
X143152747Y-115613866D01*
X143307248Y-115726118D01*
X143481712Y-115803794D01*
X143668513Y-115843500D01*
X143859485Y-115843500D01*
X143859487Y-115843500D01*
X143867300Y-115841839D01*
X143938088Y-115847237D01*
X143994723Y-115890051D01*
X144019220Y-115956687D01*
X144019500Y-115965084D01*
X144019500Y-116010474D01*
X143999498Y-116078595D01*
X143987137Y-116094784D01*
X143913957Y-116176059D01*
X143818476Y-116341438D01*
X143818473Y-116341445D01*
X143759457Y-116523072D01*
X143739496Y-116713000D01*
X143759457Y-116902927D01*
X143780315Y-116967119D01*
X143818473Y-117084556D01*
X143823284Y-117092889D01*
X143913958Y-117249941D01*
X143913965Y-117249951D01*
X144041744Y-117391864D01*
X144041747Y-117391866D01*
X144196248Y-117504118D01*
X144370712Y-117581794D01*
X144557513Y-117621500D01*
X144748487Y-117621500D01*
X144935288Y-117581794D01*
X145109752Y-117504118D01*
X145264253Y-117391866D01*
X145267132Y-117388669D01*
X145392034Y-117249951D01*
X145392035Y-117249949D01*
X145392040Y-117249944D01*
X145487527Y-117084556D01*
X145546542Y-116902928D01*
X145566504Y-116713000D01*
X145546542Y-116523072D01*
X145487527Y-116341444D01*
X145392040Y-116176056D01*
X145318863Y-116094784D01*
X145288146Y-116030776D01*
X145286500Y-116010474D01*
X145286500Y-107509524D01*
X145306502Y-107441403D01*
X145318858Y-107425220D01*
X145392040Y-107343944D01*
X145487527Y-107178556D01*
X145546542Y-106996928D01*
X145563907Y-106831703D01*
X145590920Y-106766048D01*
X145600113Y-106755789D01*
X152244500Y-100111405D01*
X152306812Y-100077379D01*
X152333595Y-100074500D01*
X155265405Y-100074500D01*
X155333526Y-100094502D01*
X155380019Y-100148158D01*
X155390123Y-100218432D01*
X155360629Y-100283012D01*
X155354500Y-100289595D01*
X149782500Y-105861595D01*
X149720188Y-105895621D01*
X149693405Y-105898500D01*
X149637513Y-105898500D01*
X149450711Y-105938206D01*
X149276247Y-106015882D01*
X149121744Y-106128135D01*
X148993965Y-106270048D01*
X148993958Y-106270058D01*
X148898476Y-106435438D01*
X148898473Y-106435445D01*
X148839457Y-106617072D01*
X148819496Y-106807000D01*
X148839457Y-106996927D01*
X148851805Y-107034928D01*
X148898473Y-107178556D01*
X148898476Y-107178561D01*
X148993958Y-107343941D01*
X148993965Y-107343951D01*
X149121744Y-107485864D01*
X149154309Y-107509524D01*
X149276248Y-107598118D01*
X149450712Y-107675794D01*
X149637513Y-107715500D01*
X149828487Y-107715500D01*
X150015288Y-107675794D01*
X150189752Y-107598118D01*
X150344253Y-107485866D01*
X150398865Y-107425213D01*
X150472034Y-107343951D01*
X150472035Y-107343949D01*
X150472040Y-107343944D01*
X150567527Y-107178556D01*
X150626542Y-106996928D01*
X150643907Y-106831703D01*
X150670920Y-106766048D01*
X150680113Y-106755789D01*
X151090059Y-106345843D01*
X151152369Y-106311819D01*
X151223184Y-106316884D01*
X151280020Y-106359431D01*
X151304831Y-106425951D01*
X151298985Y-106473876D01*
X151252457Y-106617071D01*
X151232496Y-106807000D01*
X151252457Y-106996927D01*
X151264805Y-107034928D01*
X151311473Y-107178556D01*
X151311476Y-107178561D01*
X151399026Y-107330203D01*
X151406960Y-107343944D01*
X151480137Y-107425215D01*
X151510853Y-107489220D01*
X151512500Y-107509524D01*
X151512500Y-109159404D01*
X151492498Y-109227525D01*
X151475595Y-109248499D01*
X148201336Y-112522757D01*
X148188901Y-112532721D01*
X148189089Y-112532948D01*
X148182980Y-112538001D01*
X148135016Y-112589078D01*
X148113866Y-112610227D01*
X148109560Y-112615777D01*
X148105714Y-112620279D01*
X148073417Y-112654674D01*
X148073411Y-112654683D01*
X148063651Y-112672435D01*
X148052803Y-112688950D01*
X148040386Y-112704958D01*
X148021645Y-112748264D01*
X148019034Y-112753594D01*
X147996305Y-112794939D01*
X147996303Y-112794944D01*
X147991267Y-112814559D01*
X147984864Y-112833262D01*
X147976819Y-112851852D01*
X147969437Y-112898456D01*
X147968233Y-112904268D01*
X147956500Y-112949968D01*
X147956500Y-112970223D01*
X147954949Y-112989933D01*
X147951780Y-113009942D01*
X147951780Y-113009943D01*
X147956220Y-113056917D01*
X147956500Y-113062850D01*
X147956500Y-119312474D01*
X147936498Y-119380595D01*
X147924137Y-119396784D01*
X147850957Y-119478059D01*
X147755476Y-119643438D01*
X147755473Y-119643445D01*
X147696457Y-119825072D01*
X147676496Y-120015000D01*
X147696457Y-120204927D01*
X147721203Y-120281084D01*
X147755473Y-120386556D01*
X147755476Y-120386561D01*
X147850958Y-120551941D01*
X147850965Y-120551951D01*
X147978744Y-120693864D01*
X147978747Y-120693866D01*
X148133248Y-120806118D01*
X148307712Y-120883794D01*
X148494513Y-120923500D01*
X148685487Y-120923500D01*
X148872288Y-120883794D01*
X149046752Y-120806118D01*
X149201253Y-120693866D01*
X149308783Y-120574442D01*
X149329034Y-120551951D01*
X149329035Y-120551949D01*
X149329040Y-120551944D01*
X149424527Y-120386556D01*
X149483542Y-120204928D01*
X149503504Y-120015000D01*
X149483542Y-119825072D01*
X149424527Y-119643444D01*
X149352147Y-119518079D01*
X149329042Y-119478059D01*
X149329041Y-119478058D01*
X149329040Y-119478056D01*
X149255863Y-119396784D01*
X149225146Y-119332776D01*
X149223500Y-119312474D01*
X149223500Y-113344593D01*
X149243502Y-113276472D01*
X149260400Y-113255503D01*
X150119141Y-112396762D01*
X167410940Y-112396762D01*
X167431339Y-112577809D01*
X167431339Y-112577811D01*
X167431340Y-112577812D01*
X167491513Y-112749777D01*
X167491514Y-112749780D01*
X167588443Y-112904041D01*
X167588444Y-112904043D01*
X167717274Y-113032873D01*
X167717276Y-113032874D01*
X167871537Y-113129803D01*
X167871538Y-113129803D01*
X167871541Y-113129805D01*
X168043509Y-113189979D01*
X168224556Y-113210378D01*
X168405603Y-113189979D01*
X168577571Y-113129805D01*
X168661223Y-113077243D01*
X168681768Y-113064334D01*
X168750089Y-113045028D01*
X168815840Y-113064333D01*
X168836385Y-113077243D01*
X169008353Y-113137417D01*
X169189400Y-113157816D01*
X169370447Y-113137417D01*
X169542415Y-113077243D01*
X169696681Y-112980311D01*
X169825511Y-112851481D01*
X169922443Y-112697215D01*
X169982617Y-112525247D01*
X170003016Y-112344200D01*
X169982617Y-112163153D01*
X169922443Y-111991185D01*
X169922441Y-111991182D01*
X169922441Y-111991181D01*
X169842213Y-111863498D01*
X169822900Y-111796462D01*
X169822900Y-108610888D01*
X169842902Y-108542767D01*
X169859800Y-108521798D01*
X173108657Y-105272940D01*
X173121092Y-105262979D01*
X173120905Y-105262752D01*
X173127009Y-105257700D01*
X173127018Y-105257695D01*
X173174999Y-105206599D01*
X173196134Y-105185465D01*
X173200429Y-105179927D01*
X173204271Y-105175426D01*
X173236586Y-105141016D01*
X173246345Y-105123262D01*
X173257197Y-105106741D01*
X173269613Y-105090736D01*
X173288347Y-105047443D01*
X173290961Y-105042107D01*
X173313694Y-105000756D01*
X173313695Y-105000755D01*
X173318733Y-104981130D01*
X173325138Y-104962425D01*
X173333181Y-104943840D01*
X173340563Y-104897220D01*
X173341761Y-104891439D01*
X173353500Y-104845725D01*
X173353500Y-104842524D01*
X173354209Y-104840108D01*
X173354493Y-104837862D01*
X173354855Y-104837907D01*
X173373502Y-104774403D01*
X173385864Y-104758213D01*
X173459040Y-104676944D01*
X173554527Y-104511556D01*
X173613542Y-104329928D01*
X173633504Y-104140000D01*
X173613542Y-103950072D01*
X173554527Y-103768444D01*
X173459040Y-103603056D01*
X173459038Y-103603054D01*
X173459034Y-103603048D01*
X173331255Y-103461135D01*
X173176752Y-103348882D01*
X173002288Y-103271206D01*
X172815487Y-103231500D01*
X172624513Y-103231500D01*
X172437711Y-103271206D01*
X172263247Y-103348882D01*
X172108744Y-103461135D01*
X171980965Y-103603048D01*
X171980958Y-103603058D01*
X171885476Y-103768438D01*
X171885473Y-103768445D01*
X171826457Y-103950072D01*
X171806496Y-104140000D01*
X171826457Y-104329927D01*
X171830657Y-104342852D01*
X171885473Y-104511556D01*
X171885473Y-104511557D01*
X171885474Y-104511558D01*
X171907687Y-104550032D01*
X171924424Y-104619027D01*
X171901203Y-104686119D01*
X171887662Y-104702126D01*
X169123595Y-107466194D01*
X169061283Y-107500220D01*
X168990468Y-107495155D01*
X168933632Y-107452608D01*
X168908821Y-107386088D01*
X168908500Y-107377099D01*
X168908500Y-88661148D01*
X168928502Y-88593027D01*
X168982158Y-88546534D01*
X169008299Y-88537902D01*
X169192288Y-88498794D01*
X169366752Y-88421118D01*
X169521253Y-88308866D01*
X169536514Y-88291917D01*
X169649034Y-88166951D01*
X169649035Y-88166949D01*
X169649040Y-88166944D01*
X169744527Y-88001556D01*
X169803542Y-87819928D01*
X169823504Y-87630000D01*
X169803542Y-87440072D01*
X169744527Y-87258444D01*
X169649040Y-87093056D01*
X169649038Y-87093054D01*
X169649034Y-87093048D01*
X169521255Y-86951135D01*
X169366752Y-86838882D01*
X169192288Y-86761206D01*
X169005487Y-86721500D01*
X168814513Y-86721500D01*
X168627711Y-86761206D01*
X168453247Y-86838882D01*
X168298744Y-86951135D01*
X168170965Y-87093048D01*
X168170958Y-87093058D01*
X168075476Y-87258438D01*
X168075473Y-87258445D01*
X168016457Y-87440072D01*
X167999092Y-87605292D01*
X167972079Y-87670949D01*
X167962877Y-87681216D01*
X167886336Y-87757757D01*
X167873901Y-87767720D01*
X167874089Y-87767947D01*
X167867982Y-87772999D01*
X167820015Y-87824079D01*
X167798866Y-87845227D01*
X167794560Y-87850777D01*
X167790714Y-87855279D01*
X167758417Y-87889674D01*
X167758411Y-87889683D01*
X167748651Y-87907435D01*
X167737803Y-87923950D01*
X167725386Y-87939958D01*
X167706645Y-87983264D01*
X167704034Y-87988594D01*
X167681305Y-88029939D01*
X167681303Y-88029944D01*
X167676267Y-88049559D01*
X167669864Y-88068262D01*
X167661819Y-88086852D01*
X167654437Y-88133456D01*
X167653233Y-88139268D01*
X167641500Y-88184968D01*
X167641500Y-88205223D01*
X167639949Y-88224933D01*
X167636780Y-88244942D01*
X167636780Y-88244943D01*
X167641220Y-88291917D01*
X167641500Y-88297850D01*
X167641500Y-111784235D01*
X167621498Y-111852356D01*
X167604595Y-111873330D01*
X167588444Y-111889480D01*
X167588443Y-111889482D01*
X167491514Y-112043743D01*
X167491513Y-112043746D01*
X167433693Y-112208989D01*
X167431339Y-112215715D01*
X167410940Y-112396762D01*
X150119141Y-112396762D01*
X152534657Y-109981245D01*
X152547092Y-109971284D01*
X152546905Y-109971057D01*
X152553009Y-109966005D01*
X152553018Y-109966000D01*
X152600999Y-109914904D01*
X152622134Y-109893770D01*
X152626429Y-109888232D01*
X152630271Y-109883731D01*
X152662586Y-109849321D01*
X152672345Y-109831567D01*
X152683197Y-109815046D01*
X152695613Y-109799041D01*
X152706946Y-109772850D01*
X152714347Y-109755748D01*
X152716961Y-109750412D01*
X152739694Y-109709061D01*
X152739695Y-109709060D01*
X152744733Y-109689435D01*
X152751138Y-109670730D01*
X152752360Y-109667907D01*
X152759181Y-109652145D01*
X152766563Y-109605525D01*
X152767761Y-109599744D01*
X152779500Y-109554030D01*
X152779500Y-109533769D01*
X152781051Y-109514058D01*
X152784219Y-109494056D01*
X152779780Y-109447089D01*
X152779500Y-109441157D01*
X152779500Y-107509524D01*
X152799502Y-107441403D01*
X152811858Y-107425220D01*
X152885040Y-107343944D01*
X152980527Y-107178556D01*
X153039542Y-106996928D01*
X153059504Y-106807000D01*
X153039542Y-106617072D01*
X152980527Y-106435444D01*
X152885040Y-106270056D01*
X152885038Y-106270054D01*
X152885034Y-106270048D01*
X152757255Y-106128135D01*
X152602752Y-106015882D01*
X152428288Y-105938206D01*
X152241487Y-105898500D01*
X152050513Y-105898500D01*
X151863711Y-105938206D01*
X151825011Y-105955436D01*
X151754644Y-105964869D01*
X151690347Y-105934761D01*
X151652535Y-105874672D01*
X151653212Y-105803678D01*
X151684666Y-105751236D01*
X156181500Y-101254405D01*
X156243812Y-101220379D01*
X156270595Y-101217500D01*
X157932404Y-101217500D01*
X158000525Y-101237502D01*
X158047018Y-101291158D01*
X158057122Y-101361432D01*
X158027628Y-101426012D01*
X158021499Y-101432595D01*
X156710336Y-102743757D01*
X156697901Y-102753721D01*
X156698089Y-102753948D01*
X156691980Y-102759001D01*
X156644016Y-102810078D01*
X156622866Y-102831227D01*
X156618560Y-102836777D01*
X156614714Y-102841279D01*
X156582417Y-102875674D01*
X156582411Y-102875683D01*
X156572651Y-102893435D01*
X156561803Y-102909950D01*
X156549386Y-102925958D01*
X156530645Y-102969264D01*
X156528034Y-102974594D01*
X156505305Y-103015939D01*
X156505303Y-103015944D01*
X156500267Y-103035559D01*
X156493864Y-103054262D01*
X156485819Y-103072852D01*
X156478437Y-103119456D01*
X156477233Y-103125268D01*
X156465500Y-103170968D01*
X156465500Y-103191223D01*
X156463949Y-103210933D01*
X156460780Y-103230942D01*
X156460780Y-103230943D01*
X156465220Y-103277917D01*
X156465500Y-103283850D01*
X156465500Y-106100272D01*
X156445498Y-106168393D01*
X156433138Y-106184579D01*
X156433050Y-106184678D01*
X156321962Y-106308053D01*
X156321958Y-106308058D01*
X156226476Y-106473438D01*
X156226473Y-106473444D01*
X156216885Y-106502952D01*
X156167457Y-106655072D01*
X156147496Y-106845000D01*
X156167457Y-107034927D01*
X156197526Y-107127470D01*
X156226473Y-107216556D01*
X156226476Y-107216561D01*
X156321958Y-107381941D01*
X156321965Y-107381951D01*
X156449744Y-107523864D01*
X156449747Y-107523866D01*
X156604248Y-107636118D01*
X156778712Y-107713794D01*
X156965513Y-107753500D01*
X157156487Y-107753500D01*
X157343288Y-107713794D01*
X157517752Y-107636118D01*
X157672253Y-107523866D01*
X157693544Y-107500220D01*
X157800034Y-107381951D01*
X157800035Y-107381949D01*
X157800040Y-107381944D01*
X157809100Y-107366250D01*
X157860477Y-107317259D01*
X157930190Y-107303819D01*
X157996102Y-107330203D01*
X158011855Y-107344939D01*
X158138744Y-107485864D01*
X158171309Y-107509524D01*
X158293248Y-107598118D01*
X158467712Y-107675794D01*
X158654513Y-107715500D01*
X158845487Y-107715500D01*
X159032288Y-107675794D01*
X159206752Y-107598118D01*
X159361253Y-107485866D01*
X159415865Y-107425213D01*
X159489034Y-107343951D01*
X159489035Y-107343949D01*
X159489040Y-107343944D01*
X159584527Y-107178556D01*
X159643542Y-106996928D01*
X159663504Y-106807000D01*
X159644400Y-106625238D01*
X159657172Y-106555402D01*
X159705674Y-106503556D01*
X159774507Y-106486161D01*
X159832711Y-106502952D01*
X159836695Y-106505252D01*
X159836701Y-106505255D01*
X159836703Y-106505256D01*
X160048174Y-106603867D01*
X160273556Y-106664258D01*
X160506000Y-106684594D01*
X160738444Y-106664258D01*
X160963826Y-106603867D01*
X161175297Y-106505256D01*
X161366432Y-106371422D01*
X161531422Y-106206432D01*
X161665256Y-106015297D01*
X161763867Y-105803826D01*
X161824258Y-105578444D01*
X161844594Y-105346000D01*
X161824258Y-105113556D01*
X161763867Y-104888174D01*
X161675537Y-104698750D01*
X161664876Y-104628558D01*
X161693856Y-104563746D01*
X161753276Y-104524889D01*
X161789732Y-104519500D01*
X163375800Y-104519500D01*
X163443921Y-104539502D01*
X163469437Y-104561190D01*
X163472747Y-104564866D01*
X163627248Y-104677118D01*
X163801712Y-104754794D01*
X163988513Y-104794500D01*
X164179487Y-104794500D01*
X164366288Y-104754794D01*
X164540752Y-104677118D01*
X164695253Y-104564866D01*
X164695255Y-104564864D01*
X164823034Y-104422951D01*
X164823035Y-104422949D01*
X164823040Y-104422944D01*
X164918527Y-104257556D01*
X164977542Y-104075928D01*
X164997504Y-103886000D01*
X164977542Y-103696072D01*
X164918527Y-103514444D01*
X164823040Y-103349056D01*
X164823038Y-103349054D01*
X164823034Y-103349048D01*
X164695255Y-103207135D01*
X164540752Y-103094882D01*
X164366288Y-103017206D01*
X164253570Y-102993247D01*
X164191097Y-102959518D01*
X164156775Y-102897369D01*
X164161503Y-102826530D01*
X164203779Y-102769492D01*
X164253570Y-102746753D01*
X164366288Y-102722794D01*
X164540752Y-102645118D01*
X164695253Y-102532866D01*
X164698563Y-102529190D01*
X164823034Y-102390951D01*
X164823035Y-102390949D01*
X164823040Y-102390944D01*
X164918527Y-102225556D01*
X164977542Y-102043928D01*
X164997504Y-101854000D01*
X164977542Y-101664072D01*
X164918527Y-101482444D01*
X164823040Y-101317056D01*
X164810664Y-101303311D01*
X164779946Y-101239306D01*
X164788708Y-101168852D01*
X164810663Y-101134689D01*
X164823040Y-101120944D01*
X164918527Y-100955556D01*
X164977542Y-100773928D01*
X164997504Y-100584000D01*
X164977542Y-100394072D01*
X164918527Y-100212444D01*
X164839461Y-100075499D01*
X164822724Y-100006505D01*
X164839462Y-99949500D01*
X164918527Y-99812556D01*
X164977542Y-99630928D01*
X164997504Y-99441000D01*
X164977542Y-99251072D01*
X164918527Y-99069444D01*
X164823040Y-98904056D01*
X164823038Y-98904054D01*
X164823034Y-98904048D01*
X164695255Y-98762135D01*
X164540752Y-98649882D01*
X164366284Y-98572204D01*
X164317069Y-98561743D01*
X164254596Y-98528015D01*
X164220275Y-98465865D01*
X164225003Y-98395026D01*
X164267280Y-98337989D01*
X164317067Y-98315250D01*
X164493288Y-98277794D01*
X164667752Y-98200118D01*
X164822253Y-98087866D01*
X164825563Y-98084190D01*
X164950034Y-97945951D01*
X164950035Y-97945949D01*
X164950040Y-97945944D01*
X165045527Y-97780556D01*
X165104542Y-97598928D01*
X165124504Y-97409000D01*
X165104542Y-97219072D01*
X165045527Y-97037444D01*
X164950040Y-96872056D01*
X164950038Y-96872054D01*
X164950034Y-96872048D01*
X164822255Y-96730135D01*
X164667752Y-96617882D01*
X164493284Y-96540204D01*
X164444069Y-96529743D01*
X164381596Y-96496015D01*
X164347275Y-96433865D01*
X164352003Y-96363026D01*
X164394280Y-96305989D01*
X164444067Y-96283250D01*
X164620288Y-96245794D01*
X164794752Y-96168118D01*
X164949253Y-96055866D01*
X164952563Y-96052190D01*
X165077034Y-95913951D01*
X165077035Y-95913949D01*
X165077040Y-95913944D01*
X165172527Y-95748556D01*
X165231542Y-95566928D01*
X165251504Y-95377000D01*
X165231542Y-95187072D01*
X165172527Y-95005444D01*
X165077040Y-94840056D01*
X165077038Y-94840054D01*
X165077034Y-94840048D01*
X164949255Y-94698135D01*
X164794752Y-94585882D01*
X164620288Y-94508206D01*
X164433487Y-94468500D01*
X164242513Y-94468500D01*
X164055711Y-94508206D01*
X163881247Y-94585882D01*
X163726747Y-94698133D01*
X163723437Y-94701810D01*
X163662991Y-94739050D01*
X163629800Y-94743500D01*
X152356853Y-94743500D01*
X152341011Y-94741750D01*
X152340984Y-94742044D01*
X152333092Y-94741298D01*
X152333091Y-94741298D01*
X152263042Y-94743500D01*
X152233144Y-94743500D01*
X152233140Y-94743500D01*
X152233130Y-94743501D01*
X152226179Y-94744379D01*
X152220267Y-94744844D01*
X152173113Y-94746326D01*
X152173111Y-94746327D01*
X152153656Y-94751978D01*
X152134303Y-94755986D01*
X152114211Y-94758524D01*
X152114204Y-94758525D01*
X152114203Y-94758526D01*
X152114201Y-94758526D01*
X152114200Y-94758527D01*
X152070339Y-94775892D01*
X152064724Y-94777815D01*
X152019407Y-94790982D01*
X152001964Y-94801297D01*
X151984218Y-94809990D01*
X151965382Y-94817448D01*
X151927209Y-94845181D01*
X151922248Y-94848440D01*
X151881638Y-94872458D01*
X151867311Y-94886784D01*
X151852285Y-94899617D01*
X151835895Y-94911525D01*
X151835893Y-94911527D01*
X151805808Y-94947892D01*
X151801812Y-94952283D01*
X141333794Y-105420299D01*
X141271482Y-105454325D01*
X141200667Y-105449260D01*
X141143831Y-105406713D01*
X141119087Y-105341091D01*
X141099609Y-105093597D01*
X141040505Y-104847409D01*
X140943616Y-104613498D01*
X140811328Y-104397624D01*
X140646898Y-104205102D01*
X140454376Y-104040672D01*
X140238502Y-103908384D01*
X140184463Y-103886000D01*
X140004589Y-103811494D01*
X139825244Y-103768438D01*
X139758403Y-103752391D01*
X139506000Y-103732526D01*
X139253597Y-103752391D01*
X139007410Y-103811494D01*
X138773499Y-103908383D01*
X138557625Y-104040671D01*
X138365102Y-104205102D01*
X138200671Y-104397625D01*
X138068383Y-104613499D01*
X137971494Y-104847410D01*
X137912391Y-105093597D01*
X137892526Y-105346000D01*
X134586500Y-105346000D01*
X134586500Y-83026500D01*
X134606502Y-82958379D01*
X134660158Y-82911886D01*
X134712500Y-82900500D01*
X179287500Y-82900500D01*
X179355621Y-82920502D01*
G37*
%TD.AperFunction*%
%TD*%
M02*
